<svg xmlns="http://www.w3.org/2000/svg" width="1024" height="1024"><path d="M161.1 309.866l3.037-.007c3.35-.006 6.7-.005 10.05-.004l7.215-.01c5.851-.008 11.702-.011 17.553-.012 4.76 0 9.52-.003 14.279-.006a57323.283 57323.283 0 0142.737-.012h2.208c11.8 0 23.599-.01 35.398-.023 12.132-.015 24.264-.022 36.397-.02 6.804 0 13.609-.003 20.413-.014 6.403-.01 12.806-.01 19.209-.003 2.344.002 4.689 0 7.033-.007 34.608-.083 34.608-.083 47.371 11.252 1.95 2.586 1.95 2.586 3.688 5.375l1.761 2.773c3.357 6.173 3.938 11.746 4.163 18.633l.114 3.017c.464 13.79.458 27.59.474 41.386.003 2.353.007 4.705.012 7.058.013 7.402.023 14.804.027 22.206.004 8.475.022 16.95.05 25.426.023 6.61.033 13.219.034 19.828.001 3.925.007 7.849.025 11.773.016 3.683.018 7.365.01 11.047-.002 1.971.012 3.943.026 5.914-.052 11.387-1.262 22.34-8.384 31.564l-1.27 1.828C418.363 537.27 409.09 540.452 399 542c-3.23.242-6.435.255-9.672.227h-2.754c-2.965 0-5.93-.016-8.894-.032l-6.213-.008c-5.421-.008-10.843-.027-16.265-.05-5.544-.02-11.088-.03-16.632-.04-10.857-.02-21.713-.055-32.57-.097l.218 1.828.28 2.422.281 2.391c1.11 11.856-.412 24.318-8.029 33.797-4.894 5.124-9.88 7.188-16.75 8.562v11l2.379 1.066c8.595 4.04 15.847 8.458 19.844 17.41 4.978 16.163 5.553 40.401-1.348 55.899-4.83 8.699-12.451 13.315-21.758 16.21-9.217 1.803-19.118.86-27.3-3.839-8.291-5.752-13.458-13.601-15.338-23.486-2.167-14.753-3.62-36.924 5.271-49.76A72.125 72.125 0 01247 612l1.664-1.707c4.078-3.826 8.024-5.616 13.336-7.293v-12l-4-1.062c-7.938-2.684-13.33-8.073-17.035-15.52-2.97-7.442-3.064-14.898-3.008-22.797l.01-2.519c.007-2.034.02-4.068.033-6.102l-3.26-.018c-10.18-.057-20.36-.13-30.54-.218-5.232-.044-10.464-.084-15.697-.11-5.058-.027-10.115-.067-15.172-.117-1.922-.017-3.843-.028-5.765-.035-14.888-.053-28.617-.454-40.566-10.502-2.782-3.123-4.966-6.351-7-10l-1.055-1.89c-3-6.575-2.664-14.025-2.945-21.11l-.124-3.069c-.736-18.567-.987-37.072-.825-55.654.02-2.616.038-5.232.057-7.849.04-5.416.085-10.831.134-16.247.055-6.219.1-12.438.138-18.657.038-6.066.086-12.131.14-18.197.02-2.549.038-5.097.053-7.646.022-3.555.055-7.11.092-10.666l.012-3.115c.196-15.342 2.25-27.803 13.323-38.9 8.73-8.495 20.572-9.153 32.1-9.134zM138 340c-1.014 3.042-1.16 5.204-1.221 8.392l-.07 3.353-.06 3.646-.07 3.79c-.048 2.663-.094 5.326-.137 7.99-.064 3.994-.144 7.987-.223 11.981-.276 15.328-.118 30.543.781 45.848l3.56-.159c4.382-.181 8.762-.296 13.145-.39 1.893-.05 3.786-.119 5.677-.205 15.728-.704 15.728-.704 20.376 2.882 1.816 2.574 3.062 4.96 4.242 7.872a162.5 162.5 0 002.313 4.063L188 442l2 1 .62-2.163a3899.105 3899.105 0 0114.334-48.737c.568-1.885 1.135-3.771 1.7-5.658 2.876-9.58 5.783-19.09 9.346-28.442h14c5.975 17.68 11.838 35.384 16.95 53.337 1.674 5.84 3.44 11.652 5.199 17.466l1.311 4.35c2.684 8.925 5.476 17.799 8.464 26.626 1.833 5.486 3.466 11.024 5.014 16.596 1.54 5.257 3.307 10.436 5.062 15.625 2.296-2.296 2.732-3.792 3.691-6.867l.924-2.934.948-3.074.958-3.05c1.556-4.859 1.556-4.859 2.885-9.78.825-3.188 1.824-6.317 2.815-9.456l.681-2.165a212058.806 212058.806 0 003.802-12.064c1.097-3.483 2.196-6.966 3.296-10.449 1.393-4.414 2.783-8.829 4.171-13.245 1.08-3.431 2.163-6.862 3.246-10.293.513-1.624 1.024-3.248 1.534-4.873 2.897-9.217 5.904-18.374 9.21-27.454 1.366-3.556 1.366-3.556 1.839-7.296l14 1c3.5 9.282 6.49 18.698 9.46 28.158a7115.266 7115.266 0 005.17 16.392c3.016 9.52 6.149 18.998 9.37 28.45 2.472-1.945 3.086-3.255 4.111-6.307 1.493-4.312 3.145-7.92 6.889-10.693 8.417-2.605 17.806-1.631 26.5-1.375 2.469.022 4.937.038 7.406.047 6.034.036 12.063.151 18.094.328 1.45-2.902 1.135-5.436 1.145-8.678l.01-2.08c.01-2.279.012-4.557.013-6.836l.01-4.762c.006-3.336.008-6.672.007-10.007 0-4.252.014-8.504.031-12.756.011-3.285.013-6.569.013-9.853 0-1.566.005-3.132.013-4.698.587-15.502.587-15.502-5.242-29.33h-2v-2c-7.253-3.972-13.754-4.147-21.824-4.134l-2.983-.007c-3.295-.006-6.59-.005-9.886-.004l-7.092-.01c-6.42-.01-12.838-.012-19.258-.012-4.01 0-8.02-.003-12.03-.006-13.265-.009-26.53-.013-39.796-.012h-4.334c-11.599 0-23.198-.01-34.797-.023-11.916-.015-23.832-.022-35.748-.02-6.688 0-13.376-.003-20.063-.014-6.288-.01-12.576-.01-18.864-.003-2.308.002-4.616 0-6.924-.007-3.15-.008-6.3-.003-9.45.005l-2.768-.016c-10.245.056-16.149 2.658-23.183 10.263zm84 56c-2.595 8.37-5.186 16.741-7.771 25.114-1.201 3.888-2.403 7.776-3.609 11.662a6897.367 6897.367 0 00-3.481 11.263c-.442 1.43-.885 2.86-1.33 4.289a2112.54 2112.54 0 00-1.86 6.024l-1.07 3.459c-.842 3.056-1.42 6.054-1.879 9.189-4.314.342-8.586.58-12.914.477l-2.147-.045c-2.51-.56-3.415-1.572-5.001-3.557A114.258 114.258 0 01179 459c-1.167-2.526-2.45-4.979-3.75-7.437l-.871-1.901c-1.297-2.498-2.493-4.366-5.233-5.283-2.402-.303-4.725-.37-7.146-.379l-2.834-.105c-3.015-.1-6.024-.13-9.041-.145l-3.125-.062-2.992-.016-2.699-.028c-2.868.442-3.563 1.068-5.309 3.356-.442 2.456-.442 2.456-.356 5.247l-.01 3.248.038 3.513.006 3.622c.006 2.533.02 5.067.04 7.6.032 3.859.042 7.716.048 11.575l.03 7.39.014 3.477c-.437 12.393-.437 12.393 4.19 23.328 10.048 9.017 28.084 6.284 40.668 6.259l6.868.01c6.19.01 12.38.006 18.57 0 6.492-.005 12.983 0 19.475.002 11.596.004 23.191-.002 34.787-.012 10.495-.009 20.99-.007 31.486.002 12.215.01 24.43.014 36.645.009 6.457-.004 12.913-.004 19.369.003 6.07.005 12.14.001 18.21-.01 2.222-.003 4.444-.002 6.666.002 3.044.006 6.087-.001 9.13-.011l2.638.013c8.649-.054 17.663-.466 24.488-6.267 6.363-7.466 5.275-18.183 5.195-27.445l-.008-3.791c-.01-3.292-.027-6.583-.05-9.874-.02-3.372-.03-6.744-.04-10.117-.021-6.59-.055-13.182-.097-19.773-5.556-.609-11.041-1.127-16.637-1.133l-3.498-.004-3.552.012-3.588-.012c-3.245.004-6.482.05-9.725.137l-2.249.056c-3.14.239-4.596.8-6.923 2.956-1.46 2.385-2.662 4.673-3.844 7.195-5.633 11.884-5.633 11.884-10.01 13.576-4.753.71-9.284.107-13.974-.783-3.566-7.584-6.262-15.358-8.875-23.312l-1.322-3.991A895.653 895.653 0 01320 408c-2.23.838-2.23.838-2.917 3.295l-.947 3.08-1.081 3.479c-.38 1.25-.76 2.502-1.153 3.79a3243.784 3243.784 0 00-4.326 14.078c-.847 2.773-1.702 5.544-2.557 8.315a6771.222 6771.222 0 00-5.285 17.2l-.944 3.087A157.084 157.084 0 00299 471c-.394 1.307-.8 2.61-1.215 3.91l-.728 2.286-.78 2.437-1.63 5.129c-.857 2.69-1.715 5.381-2.575 8.071-.83 2.6-1.656 5.2-2.482 7.8-.39 1.212-.39 1.212-.786 2.45-1.324 3.881-1.324 3.881-1.804 7.917a3746.7 3746.7 0 01-12.25.063l-3.512.025-3.379.01-3.11.016c-4.6-.19-4.6-.19-6.749-1.114-1.18-2.386-1.18-2.386-2.147-5.604l-1.125-3.65a8433.57 8433.57 0 01-1.177-4.008 1729.018 1729.018 0 01-4.572-15.19c-1.08-3.622-2.177-7.238-3.274-10.855a6216.998 6216.998 0 01-7.072-23.572c-1.655-5.543-3.316-11.084-4.977-16.625l-1.668-5.575A1529.801 1529.801 0 00223 396h-1zm35 146l-.187 9.625-.083 2.999c-.05 5.195.227 8.95 3.27 13.376 3.463 2.872 7.591 4.237 12.063 4.438 5.111-.568 9.001-1.567 12.812-5.25 2.703-5.257 2.25-11.3 2.188-17.063L287 542h-30zm5 81c-6.085 7.527-5.213 14.947-5.25 24.25l-.062 3.934c-.029 6.969.118 12.556 3.312 18.816 3.886 3.609 7.586 4.74 12.758 5.098 5-.218 8.276-2.056 11.617-5.66 2.655-3.983 2.813-6.89 2.863-11.57l.025-2.154c.014-1.508.024-3.016.032-4.525.017-2.285.061-4.568.105-6.853.126-10.76.126-10.76-4.4-20.336-3.447-3.44-6.758-3.733-11.465-4.059-4.015.093-6.095.926-9.535 3.059z" fill="#8d52ae"/><path d="M618.293 376.121l2.14.072c2.251.076 4.503.16 6.754.244l4.584.159c3.744.129 7.486.265 11.229.404 3.464 7.172 5.872 14.536 8.188 22.145l1.762 5.714c.815 2.648 1.625 5.297 2.436 7.946 1.415 4.624 2.838 9.246 4.262 13.867.754 2.452 1.507 4.904 2.257 7.356 2.01 6.552 4.111 13.058 6.367 19.53C669 456 669 456 669 459h2l.306-1.741c1.334-7.147 3.3-14.013 5.432-20.958l1.1-3.616c.959-3.153 1.923-6.305 2.888-9.457.968-3.162 1.928-6.327 2.89-9.492 10.658-35.01 10.658-35.01 12.384-36.736 2.207-.171 4.42-.275 6.633-.352l2.03-.07c1.424-.047 2.848-.093 4.273-.136 2.16-.066 4.319-.144 6.478-.223a558614116.742 558614116.742 0 007.961-.256C727 376 727 376 734 377v134c-9.016 1.127-9.016 1.127-12.43 1.133l-2.218.004-2.227-.012-2.297.012c-5.574-.01-5.574-.01-7.828-1.137l.007-3.29c.02-10.212.035-20.424.045-30.637.005-5.25.012-10.501.023-15.752.011-5.064.017-10.127.02-15.191.002-1.936.005-3.871.01-5.806.008-2.704.009-5.407.009-8.11l.01-2.444c.085-4.015.085-4.015-1.124-7.77l-.88 3.018-1.253 4.298-.692 2.374c-1.298 4.45-2.6 8.899-3.91 13.345-.56 1.908-1.122 3.815-1.683 5.723l-.873 2.968a2316.668 2316.668 0 00-5.509 19.097c-1.231 4.322-2.479 8.64-3.73 12.958a953.775 953.775 0 00-1.793 6.317 888.053 888.053 0 01-2.548 8.867l-.735 2.69c-1.777 5.958-1.777 5.958-4.868 7.897-3.323.59-6.465.636-9.839.573l-3.8-.055L661 512l-.42-1.728a174.458 174.458 0 00-1.852-6.628l-.771-2.599-.836-2.803-.873-2.935-2.81-9.432-.958-3.218c-4.03-13.537-8.078-27.067-12.345-40.532l-.877-2.797-.746-2.347C638 435 638 435 638 432l-2-1c-.633-2.285-.633-2.285-1.125-5.063l-.508-2.785L634 421l.013 3.365c.04 10.448.071 20.896.09 31.344.011 5.372.025 10.743.048 16.115.022 5.18.034 10.361.039 15.542.003 1.98.01 3.96.021 5.94.015 2.766.017 5.531.016 8.297l.022 2.5c-.02 5.669-.02 5.669-2.249 7.897a88.725 88.725 0 01-7.625.188l-2.082-.002c-4.9-.042-9.34-.567-14.293-1.186V377c3.54-1.18 6.624-1.024 10.293-.879zM707 416l1 2z" fill="#8d52ae"/><path d="M837 384c7.93 7.303 12.735 17.296 14 28a127.42 127.42 0 010 10c-3.248 1.083-5.359 1.034-8.762.879l-3.388-.147-3.538-.17-3.572-.158c-2.913-.13-5.827-.264-8.74-.404l-.378-2.502-.517-3.28-.503-3.251c-1.08-5.32-3.375-7.954-7.477-11.342-5.993-3.087-14.041-2.742-20.41-1-4.925 2.425-7.864 6.358-9.715 11.375-3.808 17.254-7.344 53.08 1.574 68.77L787 483v2a305.65 305.65 0 005 2l2.75 1.125c7.307 1.967 14.458 1.298 21.25-2.125 4.99-4.861 6.213-10.016 6.625-16.813L823 463h-17v-24c2.278-1.14 3.537-1.127 6.067-1.13l2.538-.009 2.743.006 2.809-.003c1.961 0 3.922.001 5.883.006 3.014.005 6.027 0 9.04-.007 1.902 0 3.803.002 5.705.004l2.75-.006c6.35.024 6.35.024 7.465 1.139.126 2.357.189 4.684.203 7.043l.017 2.182c.01 1.536.016 3.072.02 4.608.01 2.3.04 4.6.072 6.9.118 16.137-2.217 31.378-13.636 43.712-10.554 9.791-24.099 12.914-38.168 12.77-13.065-.8-25.621-5.335-34.508-15.215-3.428-4.767-6.443-9.714-9-15l-1-2a294.617 294.617 0 01-1.063-8.125l-.275-2.285c-.224-1.863-.443-3.726-.662-5.59h-1c-.025-6.248-.043-12.496-.055-18.744-.005-2.127-.012-4.254-.02-6.382-.013-3.05-.018-6.1-.023-9.151l-.015-2.901v-2.67l-.007-2.361C752 424 752 424 753 423a280 280 0 00.75-6.25c1.841-13.129 6.396-24.066 16.637-32.781 18.876-13.987 48.035-15.67 66.613.031z" fill="#8d52ae"/><path d="M521 377h31c4.872 14.39 9.45 28.835 13.825 43.383a11466.316 11466.316 0 006.655 22.036c2.77 9.141 5.577 18.27 8.407 27.394l.6 1.936c2.105 6.788 4.215 13.575 6.33 20.36l2.062 6.633.963 3.076.867 2.795.76 2.435C593 509 593 509 593 511c-6.162.913-12.22 1.11-18.438 1.125l-2.44.014c-5.875-.015-5.875-.015-8.122-1.139-.732-1.972-1.362-3.983-1.945-6.004l-.97-3.315-1.21-4.244L556 484l-38-1c-2.349 6.86-2.349 6.86-4.14 13.746l-.56 2.346a188.251 188.251 0 00-1.054 4.773c-.556 2.244-1.113 4.12-2.246 6.135-5.257 2.619-11.041 2.272-16.813 2.187l-2.6-.001c-6.305-.045-6.305-.045-8.587-1.186.56-5.295 1.46-10.113 3.003-15.23l.613-2.054c.667-2.231 1.344-4.46 2.02-6.689.478-1.588.954-3.177 1.43-4.765 1.271-4.237 2.55-8.471 3.83-12.705 1.32-4.368 2.632-8.737 3.944-13.107 1.572-5.23 3.144-10.461 4.72-15.69a7523.233 7523.233 0 0010.052-33.628c1.215-4.096 2.43-8.192 3.642-12.289a8611.97 8611.97 0 012.394-8.073l.692-2.344c1.546-5.199 1.546-5.199 2.66-7.426zm15 36c-2.783 8.987-5.536 17.983-8.202 27.006a797.245 797.245 0 01-1.248 4.162 836.306 836.306 0 00-1.82 6.117l-1.08 3.621c-.613 2.92-.703 4.357.35 7.094 3.77.029 7.542.047 11.312.063l3.249.025 3.115.01 2.872.016c2.59-.009 2.59-.009 5.452-1.114a315.859 315.859 0 00-4.313-17.684l-.65-2.368c-.448-1.633-.899-3.266-1.35-4.898-.692-2.504-1.373-5.01-2.054-7.517a6558.9 6558.9 0 00-1.32-4.78l-.613-2.268c-1.124-4.137-1.124-4.137-3.7-7.485z" fill="#8d52ae"/><path d="M553 547v77h-17l-1-45-2.809 9.59-2.69 9.154c-.625 2.127-1.249 4.254-1.871 6.382-.893 3.051-1.79 6.101-2.689 9.151l-.846 2.901-.788 2.67-.693 2.361C522 623 522 623 521 624c-1.853.072-3.708.084-5.563.063l-3.066-.028L510 624l-.886-3.105a3326.985 3326.985 0 00-3.277-11.366c-.474-1.642-.945-3.284-1.414-4.927-.672-2.358-1.355-4.713-2.04-7.067l-.632-2.238c-.524-1.784-1.13-3.544-1.751-5.297l-2-1-1 35h-16c-.833-9.382-1.135-18.635-1.098-28.05l.005-4.182c.003-3.622.013-7.244.024-10.865.01-3.714.015-7.429.02-11.143.01-7.254.028-14.507.049-21.76h23l2.59 8.46a34419.3 34419.3 0 002.482 8.093l1.726 5.634c.825 2.696 1.652 5.391 2.48 8.086l.78 2.554C514.302 585 514.302 585 516 589l12-41 11.938-.5 3.769-.158 2.945-.123 3.031-.127C552 547 552 547 553 547zm-56 32v7h2l-1-7h-1z" fill="#8d52ae"/><path d="M897 377v134c-3.46.865-5.916 1.117-9.422 1.098l-3.105-.01-3.223-.025-3.27-.014c-2.66-.012-5.32-.028-7.98-.049-1.433-2.866-1.127-5.31-1.13-8.514l-.005-2.042c-.004-2.256-.001-4.512.002-6.768 0-1.598-.002-3.195-.004-4.793-.003-4.3.002-8.6.008-12.9.004-2.66.006-5.322.007-7.983.015-30.676.383-61.332 1.122-92 3-.197 6-.382 9-.563l2.543-.17 2.52-.146 2.285-.143c3.567.03 7.112.58 10.652 1.022z" fill="#8d52ae"/><path d="M687 548c36.222 0 36.222 0 43.688 4.688 5.13 5.13 7.422 11.763 7.562 18.937-.09 7.604-1.738 14.863-7.25 20.375l-3 2c.7 4.785 2.505 8.955 4.375 13.375.304.73.608 1.46.922 2.21 1.873 4.484 3.783 8.951 5.703 13.415-1 1-1 1-4.816 1.098a762.816 762.816 0 01-4.746-.035l-2.444-.014c-1.998-.012-3.996-.03-5.994-.049-1.84-4.122-3.67-8.248-5.5-12.375l-1.59-3.563-1.504-3.398-1.396-3.142C710 599 710 599 710 597l-5 1-1 26h-17v-76zm17 15v21c7.454.194 7.454.194 14-2 2.801-4.361 2.744-8.995 2-14-1.603-3.353-1.603-3.353-5-5-3.771-.397-7.187-.23-11 0z" fill="#8d52ae"/><path d="M889.16 547.992c5.641 3.012 8.461 6.788 11.098 12.543.787 2.616.887 4.75.742 7.465l2 1h-2l1 3c-3.305 1.982-5.798 2.244-9.625 2.188l-2.914-.02C887 574 887 574 885 573l-.375-3.375c-.295-3.585-.295-3.585-2.313-5.563-2.964-1.361-5.085-1.413-8.312-1.062-2.444 2.444-2.92 3.554-3 7 3.795 4.602 8.212 6.946 13.5 9.563 8.22 4.11 14.197 7.494 17.5 16.437 1.95 7.161.679 13.822-2.75 20.313-5.38 6.425-12.115 8.642-20.25 9.687-7.633-.21-15.012-2.102-21-7-3.889-4.775-6.145-9.41-6.125-15.625l-.008-2.414C852 599 852 599 853 598c2.492-.127 4.945-.185 7.438-.188l2.103-.037c1.821-.005 3.642.103 5.459.225 2 2 2 2 2.125 5.125L870 606l3.313 1.438 1.863.808c1.581.654 3.2 1.213 4.824 1.754l1-2 3-1c.415-3.06.674-5.051 0-8-2.994-3.248-7.467-4.753-11.402-6.578-7.834-3.682-14.695-7.12-18.489-15.356-1.867-5.948-1.634-12.639.903-18.34 7.235-12.279 21.076-14.838 34.148-10.734z" fill="#8d52ae"/><path d="M833 553c4.967 5.638 7.172 13.714 7.188 21.188L840 577c-3.693 1.231-6.88.872-10.688.563l-2.126-.159c-1.73-.13-3.458-.266-5.186-.404l-.113-1.828c-.29-3.515-.551-6.465-2.074-9.672-2.604-2.155-4.455-2.433-7.813-2.5-2.777 1.199-4.444 2.16-6.122 4.694-1.805 4.74-1.21 10.03-1.194 15.04.003 2.062-.02 4.121-.045 6.182-.098 9.485-.098 9.485 3.361 18.084 3.19 1.595 6.53 1.377 10 1 2.083-.917 2.083-.917 3-3 .4-2.323.74-4.657 1-7 1-1 1-1 4.816-1.098 1.582.007 3.165.019 4.747.035l2.443.014c1.998.012 3.996.03 5.994.049-.352 9.583-1.702 16.21-8.875 22.875-5.912 5.146-12.244 5.59-19.809 5.426-7.338-.666-12.542-3.08-17.753-8.301-6.846-8.669-7.033-19.359-6.875-30l-.01-3.29c.069-10.549.292-21.294 7.322-29.71 10.629-10.349 27.803-10.5 39-1z" fill="#8d52ae"/><path d="M611 549c.328 3.004.328 3.004.25 6.563-.015 1.176-.03 2.353-.047 3.566C611 562 611 562 610 563c-1.927.087-3.857.107-5.785.098l-3.545-.01-3.733-.025-3.744-.014c-3.064-.012-6.129-.03-9.193-.049v15h24c.098 10.84.098 10.84 0 14-1 1-1 1-3.133 1.114l-2.777-.016-2.998-.01-3.155-.025-3.166-.014c-2.59-.012-5.18-.03-7.771-.049l-1 16 5.652-.035 7.285-.028 3.733-.025 3.545-.01 3.285-.016C610 609 610 609 611 610c.099 2.165.13 4.333.125 6.5l.008 3.594C611 623 611 623 610 624c-1.35.093-2.707.117-4.06.114h-2.61l-2.834-.016-2.888-.005c-3.057-.005-6.114-.018-9.17-.03A8189.481 8189.481 0 01567 624c-1.412-53.043-1.412-53.043 0-76 5.784-.192 11.568-.371 17.352-.537 1.969-.059 3.937-.12 5.905-.187 2.827-.094 5.654-.174 8.481-.253l2.671-.097 2.487-.061 2.187-.068C608 547 608 547 611 549zM671 546h4v2l3 1h-2v14h-19v61h-17v-61l-17 1-1-1v-15l49-1v-1z" fill="#8d52ae"/><path d="M769 547v77h-16a2061.662 2061.662 0 01-1-76l7.938-.5 2.287-.145C767.887 547 767.887 547 769 547z" fill="#8d52ae"/><path d="M734 377v134c-9.016 1.127-9.016 1.127-12.43 1.133l-2.218.004-2.227-.012-2.297.012c-5.574-.01-5.574-.01-7.828-1.137-.023-10.91-.041-21.82-.052-32.73-.005-5.066-.012-10.133-.023-15.2-.011-4.895-.017-9.79-.02-14.686a2900.39 2900.39 0 00-.01-5.585c-.05-17.96-.05-17.96 1.105-26.799h2v93h21V379h-35v-2c3.965-.17 7.93-.33 11.896-.482 2.001-.079 4.003-.165 6.004-.25l3.877-.147 3.54-.143c4.24.025 8.467.554 12.683 1.022z" fill="#8d52ae"/><path d="M897 377v134c-3.46.865-5.916 1.117-9.422 1.098l-3.105-.01-3.223-.025-3.27-.014c-2.66-.012-5.32-.028-7.98-.049-1.433-2.866-1.127-5.31-1.13-8.514l-.005-2.042c-.004-2.256-.001-4.512.002-6.768 0-1.598-.002-3.195-.004-4.793-.003-4.3.002-8.6.008-12.9.004-2.66.006-5.322.007-7.983.015-30.676.383-61.332 1.122-92 3-.197 6-.382 9-.563l2.543-.17 2.52-.146 2.285-.143c3.567.03 7.112.58 10.652 1.022zm-25 2v130h23V379h-23z" fill="#8d52ae"/><path d="M624.788 376.187c2.27.063 4.538.104 6.808.145l4.314.121 3.973.099L643 377c2.29 3.435 2.178 4.985 2 9l-2-1-1-5-32-1v130h21v-93h1c1.002 10.641 1.245 21.237 1.387 31.918l.077 5.378c.053 3.727.102 7.454.149 11.182.06 4.783.135 9.565.212 14.348.057 3.688.106 7.376.152 11.064.023 1.765.05 3.53.08 5.295.04 2.453.07 4.906.094 7.359l.045 2.211c.012 1.75-.083 3.5-.196 5.245-2 2-2 2-5.414 2.23a292.582 292.582 0 01-4.211-.043l-2.082-.001c-4.9-.042-9.34-.567-14.293-1.186V377c5.36-1.787 11.183-.977 16.788-.813z" fill="#8d52ae"/><path d="M137 511c1.5 1.375 1.5 1.375 3 3v2c9.152 4.746 17.67 5.155 27.843 5.114h2.879c3.162 0 6.324-.009 9.486-.016l6.826-.005c4.89-.003 9.78-.01 14.67-.018 7.73-.013 15.463-.02 23.194-.024 10.84-.007 21.678-.017 32.518-.03l2.081-.003a436992.149 436992.149 0 0031.348-.039l2.081-.002c11.455-.014 22.91-.023 34.366-.03 7.686-.005 15.372-.015 23.058-.029 4.78-.007 9.558-.01 14.338-.013 2.216-.002 4.432-.005 6.648-.01 3.025-.008 6.05-.009 9.075-.009l2.655-.01c4.752.008 9.247.328 13.934 1.124-3.065 2.044-3.67 2.25-7.12 2.257l-2.555.02-2.806-.01-2.98.014c-3.312.013-6.624.011-9.936.01-2.368.006-4.737.012-7.105.02-5.776.016-11.552.022-17.329.023-4.697.001-9.395.005-14.092.012-13.324.017-26.647.026-39.97.025H288.749c-11.645-.001-23.291.018-34.937.046-11.962.029-23.925.042-35.887.04-6.714 0-13.428.006-20.142.027-6.32.02-12.638.02-18.958.005-2.316-.002-4.632.003-6.948.015-3.17.015-6.338.006-9.507-.01l-2.76.032c-7.497-.08-15.05-1.838-20.735-7.026C137 515 137 515 137 511z" fill="#8d52ae"/><path d="M407 313c7.05.153 11.862 3.298 17 8 6.67 8.473 9.265 16.15 9.615 26.774l.113 3.016c.465 13.826.437 27.661.44 41.492 0 2.36.002 4.718.005 7.077.009 8.26.013 16.518.012 24.777 0 7.658.01 15.316.026 22.974.013 6.625.018 13.25.018 19.875 0 3.936.002 7.871.013 11.807.01 3.69.01 7.38.003 11.07-.002 1.982.006 3.965.015 5.947-.024 6.973-.544 13.422-2.26 20.191h-2l.011-2.752c.089-22.118.155-44.236.196-66.355.02-10.696.049-21.392.095-32.089.04-9.325.065-18.65.074-27.975.006-4.936.018-9.871.047-14.807.027-4.65.035-9.3.03-13.951 0-1.702.008-3.404.024-5.106.096-11.216-.439-21.588-8.418-30.293-4.51-3.663-9.862-6.135-15.059-8.672v-1z" fill="#8d52ae"/><path d="M622 548c5.835-.025 11.67-.043 17.505-.055 1.982-.005 3.965-.012 5.947-.02 2.86-.013 5.72-.018 8.58-.023l2.658-.015c5.196 0 10.167.36 15.31 1.113v1h-48v11h18c1.051 3.153 1.12 5.355 1.114 8.665v3.518l-.016 3.797-.005 3.889a4803.3 4803.3 0 01-.024 10.224c-.01 3.478-.015 6.957-.02 10.436-.01 6.824-.028 13.647-.049 20.471h12l-.016-5.4c-.016-5.875-.027-11.75-.036-17.626-.005-3.564-.012-7.127-.023-10.691-.013-4.093-.018-8.186-.023-12.28l-.015-3.894v-3.58l-.007-3.169C655 563 655 563 656 562c2.859-.237 5.699-.422 8.562-.562l2.444-.131c1.998-.107 3.996-.207 5.994-.307l1-12h1v14h-18v61h-17v-61l-17 1c-1-1-1-1-1.098-4.379.007-1.394.019-2.789.035-4.183l.014-2.155c.012-1.76.03-3.522.049-5.283z" fill="#8d52ae"/><path d="M118 340h1l1 176-3-2c-.964-4.9-.801-10.013-1-15l-.125-3.098c-.733-18.604-.986-37.146-.824-55.765l.057-7.878c.04-5.433.085-10.865.134-16.297.056-6.251.1-12.503.138-18.754.038-6.087.086-12.174.14-18.26.02-2.564.038-5.127.053-7.69.021-3.566.055-7.131.092-10.697l.012-3.16c.078-6.088.794-11.502 2.323-17.401z" fill="#8d52ae"/><path d="M151 328c22.442-.024 44.885-.041 67.327-.052 10.429-.005 20.858-.012 31.287-.023 49.805-.055 99.59.094 149.386 1.075v1c-27.348.83-54.671 1.152-82.031 1.134-5.19-.002-10.38 0-15.57.002-8.677.002-17.354 0-26.032-.006-9.977-.005-19.955-.003-29.932.002-8.661.005-17.322.005-25.983.003-5.133-.002-10.266-.002-15.399.001-4.809.003-9.617.001-14.426-.005-1.747 0-3.494 0-5.24.002-11.497.013-22.915-.382-34.387-1.133l1-2z" fill="#8d52ae"/><path d="M480 548h23c1.716 5.46 3.427 10.922 5.127 16.388.58 1.858 1.161 3.716 1.746 5.572.84 2.672 1.672 5.346 2.502 8.02l.795 2.507c1.213 3.94 2.184 7.338 1.83 11.513h-2l-.471-1.766c-2.98-11.123-6.031-22.181-9.646-33.117C502 554 502 554 502 550h-19v72h12v-46h1v47h-15c-.945-8.717-1.132-17.313-1.098-26.074l.005-4.258c.003-3.697.013-7.394.024-11.091.01-3.788.015-7.576.02-11.364.01-7.404.028-14.809.049-22.213z" fill="#8d52ae"/><path d="M769 547v77h-16a2061.662 2061.662 0 01-1-76l7.938-.5 2.287-.145C767.887 547 767.887 547 769 547zm-14 3v72h12v-72h-12z" fill="#8d52ae"/><path d="M224.23 309.867l2.071-.004c2.296-.002 4.591.004 6.887.012l2.465.004c40.116.068 80.251.905 120.347 2.121v1H152v-1l2.065-.031c7.122-.109 14.244-.223 21.366-.341 2.655-.044 5.31-.085 7.964-.125 3.826-.058 7.65-.122 11.476-.187l3.571-.05c5.577-.1 11.036-.353 16.57-1.046 3.075-.34 6.127-.35 9.218-.353z" fill="#8d52ae"/><path d="M611 549v13h-27v-1l24-1 1-10h-40v72h39v1h-40v-75l19.813-.625 6.245-.213 4.899-.139 2.57-.096 2.46-.062 2.134-.068C608 547 608 547 611 549z" fill="#8d52ae"/><path d="M814.491 437.861l2.759.006 2.813-.003c1.968 0 3.935.001 5.902.006 3.022.005 6.044 0 9.066-.007 1.907 0 3.813.002 5.719.004l2.759-.006c6.376.024 6.376.024 7.491 1.139.113 2.463.164 4.896.168 7.36l.01 2.246c.005 1.574.007 3.147.007 4.721.002 2.4.02 4.798.04 7.196.003 1.53.005 3.058.005 4.586l.022 2.166c-.018 4.02-.474 7.105-2.252 10.725h-1l1-37h-41v20h16v1h-17c-.027-3.813-.047-7.625-.063-11.438l-.025-3.298-.01-3.135-.016-2.904c.241-4.717 3.673-3.35 7.605-3.364z" fill="#8d52ae"/><path d="M876.188 546.75l3.73-.016C883 547 883 547 885 549l-2.746.078c-8.822.41-15.752 1.32-22.754 6.922-4.081 5.442-3.038 13.57-2.5 20 3.699 7.946 11.212 11.328 18.688 15.125 1.713.874 3.426 1.752 5.136 2.633l2.284 1.16C885 596 885 596 887 598c.3 2.059.3 2.059.313 4.438l.05 2.37c-.44 2.653-1.32 3.515-3.363 5.192 0-3 0-3 .5-6.875-.027-2.497-.07-3.663-1.79-5.512-3.218-2.061-6.648-3.584-10.112-5.191-7.834-3.682-14.695-7.12-18.489-15.356-1.867-5.948-1.634-12.639.903-18.34 5.05-8.57 11.27-12.018 21.176-11.976z" fill="#8d52ae"/><path d="M757 403h2l-.423 2.56c-1.34 8.626-1.908 16.981-1.991 25.713l-.059 3.909c-.05 3.376-.09 6.753-.128 10.13-.04 3.466-.091 6.932-.141 10.399A7354.49 7354.49 0 00756 476h-2l-1-8h-1c-.025-6.248-.043-12.496-.055-18.744-.005-2.127-.012-4.254-.02-6.382-.013-3.05-.018-6.1-.023-9.151l-.015-2.901v-2.67l-.007-2.361C752 424 752 424 753 423c.544-3.454.966-6.918 1.402-10.387.56-3.386 1.417-6.397 2.598-9.613z" fill="#8d52ae"/><path d="M790 560h2l-.487 2.94c-.618 4.346-.693 8.644-.716 13.029l-.017 2.543c-.01 1.764-.016 3.53-.02 5.294-.01 2.686-.041 5.371-.073 8.057l-.015 5.168-.038 2.41c.025 6.115 1.11 10.918 5.198 15.704l1.98 1.668 1.958 1.707c5.337 3.542 10.429 3.75 16.605 3.605l2.23-.027c1.799-.024 3.597-.06 5.395-.098v2c-7.581 2.527-16.503 1.81-23.71-1.559-7.58-4.772-10.77-10.607-12.725-19.132-.93-5.45-.96-10.794-.878-16.309l-.01-3.29c.114-17.292.114-17.292 3.323-23.71z" fill="#8d52ae"/><path d="M636 423c2 1 2 1 2.881 3.324l.908 3.14 1.056 3.582.565 1.943c1.025 3.494 2.105 6.972 3.176 10.452a10601.219 10601.219 0 012.075 6.786c6.804 22.261 6.804 22.261 9.902 32.586l.687 2.289c.587 1.965 1.169 3.931 1.75 5.898l1.145 3.828c.783 2.907 1.036 5.186.855 8.172-2-1-2-1-2.725-2.712l-.676-2.26-.78-2.565c-.275-.929-.548-1.858-.83-2.815l-.883-2.924c-.939-3.114-1.866-6.231-2.793-9.349l-1.819-6.05c-.91-3.03-1.82-6.058-2.725-9.089a1702.563 1702.563 0 00-4.787-15.786l-.985-3.196c-.623-2.019-1.25-4.036-1.88-6.052l-.843-2.735-.747-2.402C638 435 638 435 638 432l-2-1v-8z" fill="#8d52ae"/><path d="M674 549h1v14h-18v61h-17l2-4v2h13l-.016-5.4c-.016-5.875-.027-11.75-.036-17.626-.005-3.564-.012-7.127-.023-10.691-.013-4.093-.018-8.186-.023-12.28l-.015-3.894v-3.58l-.007-3.169C655 563 655 563 656 562c2.859-.237 5.699-.422 8.562-.562l2.444-.131c1.998-.107 3.996-.207 5.994-.307l1-12z" fill="#8d52ae"/><path d="M410 336c4.732 4.324 5.832 9.54 6.256 15.743.13 4.587.082 9.173.037 13.76a2677.598 2677.598 0 01-.087 18.345c-.03 4.526-.044 9.05-.06 13.576-.032 8.859-.083 17.717-.146 26.576h-2c-.88-9.902-1.073-19.741-1.027-29.68l.016-3.717c.028-5.125.063-10.25.107-15.374.03-3.782.048-7.564.064-11.346l.04-3.47c.022-6.742-.64-12.862-2.2-19.413a693.238 693.238 0 01-1-5z" fill="#8d52ae"/><path d="M257 540h31c2.536 7.61 2.286 19.8-.844 27.262-2.349 3.531-5.169 5.385-9.156 6.738-6.253.912-11.661.646-17-3-3.668-2.955-4.811-5.478-6-10-.225-2.965-.19-5.904-.125-8.875l.027-2.375c.024-1.917.06-3.833.098-5.75h1l.367 3.762.508 4.926.238 2.474c.536 7.37.536 7.37 4.551 13.201 6.495 3.144 11.054 3.552 18.149 1.574 3.884-2.36 5.003-4.703 6.187-8.937.468-3.48.598-6.93.688-10.438L287 541h-30v-1z" fill="#8d52ae"/><path d="M530 427h1c-.562 6.956-2.034 13.21-4.063 19.875-.556 1.85-1.11 3.702-1.66 5.555l-.742 2.445c-.657 2.245-.657 2.245-.535 5.125h26l-2-6c-.125-2.875-.125-2.875 0-5 2 1 2 1 3.125 4.25.731 3.134 1.156 5.57.875 8.75-1.826 1.826-4.701 1.13-7.152 1.133l-3.791.004-3.994-.012-3.983.012-3.795-.004-3.504-.004C523 463 523 463 521 462c-.145-4.203.262-7.635 1.46-11.66.308-1.041.615-2.082.93-3.154l.985-3.248.96-3.26c1.385-4.65 2.808-9.193 4.665-13.678z" fill="#8d52ae"/><path d="M221 394h1c-.591 6.082-1.89 11.585-3.695 17.414l-.814 2.682c-.866 2.845-1.74 5.687-2.616 8.529l-1.782 5.84C209.159 441.34 205.167 454.196 201 467h-16v-1l13-1c2.468-5.434 4.274-10.898 5.938-16.625l1.464-4.977.77-2.616c1.233-4.144 2.51-8.274 3.786-12.405 1.044-3.384 2.08-6.77 3.112-10.158l2.055-6.719 1.05-3.453 1.02-3.328.907-2.971c.861-2.635 1.838-5.187 2.898-7.748z" fill="#8d52ae"/><path d="M134 445h2c.988 2.963 1.127 4.897 1.13 7.987l.009 3.076-.006 3.324.003 3.427c0 2.397-.001 4.793-.006 7.19-.005 3.651 0 7.303.007 10.955 0 2.33-.002 4.66-.004 6.99l.006 3.293c-.017 5.682-.288 11.139-1.139 16.758-2.311-3.467-2.244-4.763-2.227-8.848v-3.64l.032-3.93.008-4.023c.008-3.526.028-7.052.05-10.579.02-3.6.03-7.199.04-10.798.02-7.061.055-14.121.097-21.182z" fill="#8d52ae"/><path d="M431 432h1l1 28h1c.051 6.368.086 12.736.11 19.104.01 2.163.023 4.326.04 6.488.025 3.123.037 6.246.045 9.369l.032 2.893c0 6.271-.767 12.047-2.227 18.146h-2l1-84z" fill="#8d52ae"/><path d="M641 564h2v58l-1-2-2-1c-.025-6.708-.043-13.415-.055-20.123-.005-2.28-.012-4.56-.02-6.841-.013-3.284-.018-6.568-.023-9.852l-.015-3.073c0-5.15.218-10.037 1.113-15.111z" fill="#8d52ae"/><path d="M768 547l1 2h-14v51h-2c-1.23-2.462-1.12-4.065-1.114-6.817v-3.033l.016-3.283.005-3.354c.005-3.546.018-7.092.03-10.638A10997.901 10997.901 0 01752 548l16-1z" fill="#8d52ae"/><path d="M821.938 375.688c11.435 3.943 19.592 10.904 25 21.75 2.183 5.108 2.513 9.056 2.062 14.562-1.904-2.857-2.261-3.857-2.75-7.063-1.931-9.136-7.462-16.844-15.25-21.937-9.21-4.61-17.278-6.15-27.469-6.518-1.848-.09-3.691-.278-5.531-.482l-1-2c6.399-3.2 18.412-.164 24.938 1.688z" fill="#8d52ae"/><path d="M304 552h2c.557 11.458.256 21.093-7.25 30.438-4.798 5.024-9.982 7.356-16.75 8.562-.283 3.708-.463 7.303 0 11 2.303 2.305 2.303 2.305 5 3-1.813.625-1.813.625-4 1l-3-2c-.293-3.258-.293-3.258-.188-7.125l.083-3.883L280 590l1.758-.734c9.53-4.089 16.083-8.435 20.242-18.266.619-3.276.915-6.555 1.188-9.875l.248-2.664c.198-2.153.383-4.307.564-6.461z" fill="#8d52ae"/><path d="M516 480h41c3 7 3 7 3 11h-2l-2-7-3.241-.06c-3.974-.076-7.947-.165-11.92-.257a1290.55 1290.55 0 00-5.156-.105c-2.473-.046-4.945-.104-7.417-.164l-2.324-.035c-3.774-.104-6.736-.273-9.942-2.379v-1z" fill="#8d52ae"/><path d="M312 369h14c3.9 7.263 7.298 14.607 7 23-2-1-2-1-3.29-4.492-.452-1.459-.897-2.92-1.335-4.383l-.695-2.223c-.937-3.06-1.68-5.684-1.68-8.902l-13 1-1.46 4.777-1.915 6.16-.96 3.155-.938 2.998-.857 2.777C306 395 306 395 304 396c.548-6.038 1.891-11.205 4-16.875l.828-2.297c1.966-5.417 1.966-5.417 3.172-7.828z" fill="#8d52ae"/><path d="M833 553c5.9 7.296 6.29 13.965 6 23h-2l-.078-2.344c-.442-8.105-1.409-14.233-7.36-20.031-5.18-3.286-9.49-3.919-15.562-3.813l-2.117.002c-3.745.032-7.242.297-10.883 1.186v2a112.535 112.535 0 01-5 3 163.192 163.192 0 00-4 3c.244-3.295 1.204-4.2 3.625-6.563 11.033-8.537 26.676-8.618 37.375.563z" fill="#8d52ae"/><path d="M869 565h1l.5 3.188c1.22 4.14 3.27 5.456 6.945 7.496L880 577c2.23 1.185 4.46 2.373 6.688 3.563l3.261 1.69c6.898 3.949 10.507 8.076 12.59 15.727.992 5.777.088 11.765-2.539 17.02l-3-1 .98-1.605c2.494-5.857 1.513-13.21.145-19.27-5.356-7.876-14.711-11.581-23.121-15.45-2.976-1.66-4.393-2.71-6.004-5.675-.188-3.75-.188-3.75 0-7z" fill="#8d52ae"/><path d="M414 444l2 1c.046 7.624.082 15.247.104 22.87.01 3.54.024 7.08.047 10.62.026 4.072.035 8.142.044 12.213l.032 3.848v3.579l.014 3.15c-.243 2.744-.83 4.381-2.241 6.72-.808-12.746-1.16-25.441-1.13-38.213.005-2.84 0-5.68-.007-8.521 0-1.818.002-3.636.004-5.454l-.006-2.556c.014-3.336.077-6.069 1.139-9.256z" fill="#8d52ae"/><path d="M302 456h1a668.813 668.813 0 01-2 15h-2l-.257 1.638c-1.464 8.265-4.162 16.07-6.868 23.987l-1.418 4.2A3097.03 3097.03 0 01287 511c-8.571.071-8.571.071-12-.5l-3-.5v-1h14l.688-3.5c1.254-5.615 2.997-11.058 4.742-16.535 1.24-3.896 2.444-7.802 3.64-11.711l1.09-3.56 2.16-7.084 1.008-3.29.903-2.96C301 458 301 458 302 456z" fill="#8d52ae"/><path d="M534 572l2 1a641.993 641.993 0 01-8.52 31.678c-.682 2.309-1.358 4.619-2.033 6.93l-1.302 4.42-.61 2.085c-1.42 4.772-1.42 4.772-2.535 5.887-1.853.072-3.708.084-5.563.063l-3.066-.028L510 624v-5l2 2c2.655.565 5.291.738 8 1l.348-2.965c.622-4.332 1.816-8.42 3.086-12.601l.72-2.416c.757-2.528 1.52-5.054 2.283-7.58.51-1.7 1.018-3.4 1.526-5.1 3.97-13.25 3.97-13.25 6.037-19.338z" fill="#8d52ae"/><path d="M856.379 597.902c1.394.007 2.789.019 4.183.035l2.155.014c1.76.012 3.522.03 5.283.049v6l-1-3h-13c1.48 8.666 1.48 8.666 6 16 5.316 3.581 10.622 5.584 17 6v1c-7.484.703-13.081-.12-19-5-3.89-4.772-6.145-9.411-6.125-15.625l-.008-2.414c.232-3.425.97-2.956 4.512-3.059z" fill="#8d52ae"/><path d="M337.086 328.121l5.388.072c4.679.062 9.357.131 14.036.202 4.793.071 9.587.136 14.38.2 9.37.129 18.74.265 28.11.405v1c-21.833.685-43.655 1.106-65.5 1.125l-3.088.008c-2.919.005-5.837.004-8.756 0l-2.606.006c-5.103-.02-9.998-.408-15.05-1.139v-1c11.069-1.032 21.985-1.056 33.086-.879z" fill="#8d52ae"/><path d="M704 561c10.745-.688 10.745-.688 14.625 1.813 2.731 2.515 3.248 4.035 3.648 7.675.309 8.567.309 8.567-2.523 12.137-3.917 3.383-6.865 3.515-11.938 3.5l-2.667.008C703 586 703 586 702 585a90.91 90.91 0 01-.098-5.129l.01-3.135.025-3.298.014-3.311c.012-2.71.028-5.418.049-8.127h1v22l15-2c1.365-5.46 2.393-11.347-.313-16.5-4.271-2.384-8.879-2.87-13.687-3.5v-1z" fill="#8d52ae"/><path d="M407 313c7.05.153 11.862 3.298 17 8 7.302 9.276 9.283 17.3 9.625 28.875l.117 3.242c.094 2.628.18 5.255.258 7.883l-3-1-.028-1.86a821.723 821.723 0 00-.222-8.515l-.043-2.926c-.299-8.902-2.493-17.312-8.648-24.027-4.51-3.663-9.862-6.135-15.059-8.672v-1z" fill="#8d52ae"/><path d="M886 549c3.717.26 5.663.736 8.625 3.063 3.43 4.241 6.165 8.418 6.625 13.937l-.25 2 2 1h-2l1 3c-3.305 1.982-5.798 2.244-9.625 2.188l-2.914-.02C887 574 887 574 885 573c-.395-2.324-.722-4.66-1-7a89.247 89.247 0 00-1-4l3 2c.688 3.625.688 3.625 1 7h12c-.4-2.066-.82-4.128-1.25-6.188l-.703-3.48c-1.576-5.015-3.728-7.596-8.297-10.144L886 550v-1z" fill="#8d52ae"/><path d="M151 328c23.025-.11 45.995-.1 69 1-2.993 1.72-5.134 2.25-8.575 2.243l-2.735.01-2.948-.023h-3.082c-2.16-.004-4.32-.012-6.48-.024a1731.9 1731.9 0 00-9.73-.02c-12.182-.022-24.297-.344-36.45-1.186l1-2z" fill="#8d52ae"/><path d="M723 550c4.448.508 6.836 1.836 10 5 4.818 7.847 6.258 15.607 4.469 24.7-1.336 4.854-2.77 8.717-6.469 12.3l-3 1c1.21-2.52 2.497-4.751 4.047-7.094 2.434-4.26 2.55-8.02 2.453-12.843.015-.76.03-1.52.047-2.303-.039-5.685-1.364-10.026-4.547-14.76-1.798-1.857-1.798-1.857-3.75-2.938L723 551v-1z" fill="#8d52ae"/><path d="M240 626h1v42h-2c-.797-4.208-1.128-8.185-1.133-12.465l-.004-3.674.012-3.798-.012-3.788c.017-16.155.017-16.155 2.137-18.275z" fill="#8d52ae"/><path d="M780 419h1c.845 9.275 1.108 18.501 1.125 27.813l.014 3.177c-.012 6.396-.365 12.66-1.139 19.01l-2-1c-.025-6.335-.043-12.67-.055-19.006-.005-2.156-.012-4.31-.02-6.466a3731.49 3731.49 0 01-.023-9.294l-.015-2.92v-2.729l-.007-2.396c.12-2.184.516-4.09 1.12-6.189z" fill="#8d52ae"/><path d="M601.5 608.875l2.466-.014c5.91.015 5.91.015 7.034 1.139.073 2.186.084 4.375.063 6.563l-.028 3.628L611 623l-3-1v-10h-25v-2c6.182-.916 12.261-1.11 18.5-1.125z" fill="#8d52ae"/><path d="M245 466c2 1 2 1 3.113 4 .408 1.33.807 2.664 1.2 4a990.41 990.41 0 012.001 6.68 1195.6 1195.6 0 002.053 6.847c2.136 7.107 4.176 14.19 5.633 21.473l8 1c-3 2-3 2-6.48 1.66-4.036-1.903-4.036-1.903-5.416-5.388a136.94 136.94 0 01-1.413-4.823l-.777-2.578c-.811-2.72-1.58-5.451-2.352-8.184-.543-1.828-1.09-3.655-1.638-5.482-.517-1.751-1.032-3.503-1.545-5.256l-.729-2.488c-1.1-3.912-1.965-7.353-1.65-11.461z" fill="#8d52ae"/><path d="M806 563l1 3-.919 1.768c-2.198 4.537-1.413 10.014-1.397 14.967.003 2.06-.02 4.12-.045 6.181-.116 9.494-.116 9.494 3.361 18.084 2.918 1.945 4.625 2.453 8 3v1c-3.1-.013-5.997-.197-9-1-6.018-6.77-5.183-14.105-5.187-22.688l-.038-3.474c-.01-6.597.363-12.493 2.225-18.838l2-2z" fill="#8d52ae"/><path d="M304 627h2c1.309 13.226 1.954 26.812 0 40h-2v-40z" fill="#8d52ae"/><path d="M241 570c1.722 2.239 3.28 4.459 4.75 6.875 4.484 6.228 8.96 9.526 16.43 11.387L264 589c.983 2.948 1.134 4.927 1.125 8l.008 2.625C265 602 265 602 264 605l-3-1 1-2c.07-1.874.084-3.75.063-5.625l-.028-3.04L262 591l-1.688-.41c-7.793-2.199-13.544-6.314-17.812-13.278C241 574 241 574 241 570z" fill="#8d52ae"/><path d="M833 503h2c-2.113 5.21-6.105 6.72-11 9-7.25 2.888-14.045 4.142-21.875 4.063l-3.492-.028L796 516v-3l3.438-.148 4.562-.227c.744-.03 1.488-.062 2.254-.094 7.206-.376 13.641-1.679 20.121-5.031l2.523-1.281c2.223-1.17 2.223-1.17 4.102-3.219z" fill="#8d52ae"/><path d="M695 448h2c-.541 6.23-1.614 11.805-3.504 17.754l-.735 2.383a1662.07 1662.07 0 01-2.324 7.426l-1.576 5.08c-1.278 4.121-2.567 8.24-3.861 12.357h-2c.554-5.434 1.548-10.405 3.25-15.605l.661-2.083c.69-2.168 1.389-4.334 2.089-6.5.699-2.176 1.395-4.353 2.089-6.532.43-1.347.862-2.694 1.299-4.04 1.086-3.39 1.997-6.732 2.612-10.24z" fill="#8d52ae"/><path d="M241 669c2 2 2 2 3.563 5.625 3.194 6.495 8.791 11.676 15.562 14.313 6.408 1.781 13.265 1.81 19.875 2.062l-1 2c-11.05.468-20.358-.04-29.176-7.266-5.27-5.01-8.517-9.358-8.824-16.734z" fill="#8d52ae"/><path d="M582 563h1v15h25v14h-7v-1h5v-11l-4.996.035-6.442.028-3.298.025-3.135.01-2.904.016C583 580 583 580 582 579a210.174 210.174 0 01-.063-8.063l.014-2.298c.012-1.88.03-3.76.049-5.639z" fill="#8d52ae"/><path d="M380.754 441.734l2.596-.005c1.81-.002 3.62.002 5.43.01 2.775.011 5.551 0 8.327-.012 1.758 0 3.515.003 5.272.007l2.525-.012c5.866.048 5.866.048 8.096 2.278-14.568 2.081-29.374.89-44 0 3.909-2.606 7.22-2.288 11.754-2.266z" fill="#8d52ae"/><path d="M257 628h1l-.048 2.962c-.054 3.672-.089 7.343-.117 11.015-.015 1.58-.035 3.162-.061 4.742-.143 8.869-.235 16.929 3.226 25.281-3.871-3.613-5.84-5.953-6.259-11.328l-.007-3.922-.005-2.106c-.002-1.466.002-2.932.01-4.398.011-2.238 0-4.476-.012-6.715a8544612814.109 8544612814.109 0 01.015-8.203c.238-3.073.628-4.764 2.258-7.328z" fill="#8d52ae"/><path d="M789 603c2 3 2 3 3.125 6.25 2.343 5.602 7.125 9.553 12.613 11.941 3.972.985 7.568 1.03 11.637.934l2.23-.027c1.799-.024 3.597-.06 5.395-.098v2c-7.582 2.527-16.487 1.802-23.703-1.547-4.987-3.155-9.404-7.224-11.012-13.039C789 606.938 789 606.938 789 603z" fill="#8d52ae"/><path d="M179.52 426.176L181 429l1.738 2.57 1.575 2.555 1.613 2.57C187 439 187 439 186 442a2682.21 2682.21 0 01-2.813-4.188l-1.582-2.355C180 433 180 433 178.76 430.391c-1.548-2.636-1.548-2.636-4.395-3.05l-3.127-.048-3.388-.088-3.537-.017-3.573-.077A594.509 594.509 0 00152 427c3.495-3.495 8.623-2.698 13.375-2.938 1.054-.08 2.109-.16 3.195-.244 7.758-.398 7.758-.398 10.95 2.358z" fill="#8d52ae"/><path d="M682 494h1c-.413 6.148-1.308 11.416-4 17-3.528 1.526-7.473 1.097-11.25 1.063l-3.828-.028L661 512l-1-2c.938-2.125.938-2.125 2-4l1 3h15l1.438-5.813c.769-3.11 1.549-6.147 2.562-9.187z" fill="#8d52ae"/><path d="M288 633h1c.125 4.41.215 8.82.275 13.232.025 1.498.059 2.995.102 4.493.426 15.011.426 15.011-4.08 20.916-4.164 4.365-8.301 4.842-14.09 5.441C269 677 269 677 267 675l2.45-.297c8.162-.946 8.162-.946 14.55-5.703 2.666-4.52 3.4-7.924 3.512-13.148l.054-1.993c.054-2.078.088-4.155.121-6.234.034-1.418.068-2.836.104-4.254.085-3.457.152-6.914.209-10.371z" fill="#8d52ae"/><path d="M264 328h54v1h-14v2c-2.625.027-5.25.047-7.875.063l-2.262.025c-5.636.025-5.636.025-7.863-1.088a98.547 98.547 0 00-5.008-.316l-2.988-.127-3.129-.12-3.152-.13A2507.25 2507.25 0 00264 329v-1z" fill="#8d52ae"/><path d="M814 398.625c4.181 2.206 6.544 4.307 9 8.375.654 3.005.925 5.93 1 9l-.863-1.75c-1.068-2.113-2.149-4.195-3.324-6.25l-1.106-2c-2.995-3.51-6.405-5.679-10.961-6.314-2.408-.078-4.777-.037-7.183.064l-2.506.055c-2.02.046-4.039.118-6.057.195 3.06-6.12 16.758-3.502 22-1.375z" fill="#8d52ae"/><path d="M876.188 546.75l3.73-.016C883 547 883 547 885 549l-2.746.078c-8.777.409-15.706 1.307-22.692 6.86-1.71 2.258-2.669 4.382-3.562 7.062-.75-1.625-.75-1.625-1-4 4.838-8.931 11.268-12.292 21.188-12.25z" fill="#8d52ae"/><path d="M782 477c2.081 1.798 2.972 2.917 3.875 5.563.907 2.613.907 2.613 3.375 3.625L792 487l2.68 1.043c3.8 1.096 7.283 1.18 11.195 1.082l2.086-.027c1.68-.024 3.36-.06 5.039-.098l-1 2c-7.304 2.435-14.822 1.45-21.762-1.66-3.506-2.1-6.288-4.725-8.238-8.34v-4z" fill="#8d52ae"/><path d="M250 425h2c1.29 4.036 2.572 8.074 3.845 12.115.434 1.374.87 2.746 1.31 4.118.632 1.976 1.255 3.955 1.876 5.935l1.143 3.602c.747 2.92 1.003 5.24.826 8.23-2-1-2-1-2.895-3.344l-.918-3.156-1.035-3.523-.555-1.925a615.318 615.318 0 00-1.968-6.591l-1.379-4.586-.675-2.225c-.886-2.984-1.575-5.519-1.575-8.65z" fill="#8d52ae"/><path d="M631 496h2c.221 2.29.427 4.582.625 6.875l.352 3.867L634 510c-2 2-2 2-5.695 2.195a329.638 329.638 0 01-4.43-.07l-2.285-.027c-1.864-.024-3.727-.06-5.59-.098l1-3h14v-13z" fill="#8d52ae"/><path d="M756 477c2.282 2.282 2.49 3.423 3.25 6.5 2.65 9.169 7.186 15.751 14.75 21.5l-3 1c-7.2-4.582-11.369-12.457-15-20l-1-2c.282-2.34.613-4.675 1-7z" fill="#8d52ae"/><path d="M239 542l2 1v26l-2-1c-1.129-5.443-1.152-10.834-1.125-16.375l-.012-2.48c.01-6.018.01-6.018 1.137-7.145z" fill="#8d52ae"/><path d="M148.01 441.814h2.2c2.215-.001 4.429-.02 6.644-.039 1.401-.003 2.803-.005 4.205-.005l3.884-.013C168 442 168 442 170 444c-6.635.847-13.126 1.183-19.812 1.188l-2.811.037-2.709.005-2.429.013c-2.471-.268-4.1-1.009-6.239-2.243 2.475-2.475 8.54-1.173 12.01-1.186z" fill="#8d52ae"/><path d="M521 377h31l-1 4v-2c-3.951.093-7.902.2-11.853.317-2.006.058-4.012.105-6.018.152l-3.809.117-3.523.095c-2.934.04-2.934.04-4.797 2.319v-5z" fill="#8d52ae"/><path d="M826.816 596.902c1.582.007 3.165.019 4.746.035l2.444.014c1.998.012 3.996.03 5.994.049v6l-2 1v-5l-13 1-3 9-4-1 1.438-1.063c2.233-2.77 2.176-5.464 2.562-8.937 1-1 1-1 4.816-1.098z" fill="#8d52ae"/><path d="M590 506h2l1 5c-9.195 1.206-18.126 2.155-27-1v-1h24v-3z" fill="#8d52ae"/><path d="M331 441c2.247 2.754 3.556 5.111 4.57 8.512l.778 2.545.777 2.63c.52 1.734 1.044 3.467 1.57 5.2l.688 2.319c.47 1.793.47 1.793 1.617 2.794 2.183.235 4.372.414 6.563.563l3.628.253L354 466v1h-15c-8.408-18.017-8.408-18.017-8-26z" fill="#8d52ae"/><path d="M311 423h2c-.545 7.227-2.193 13.624-4.438 20.5l-.947 3.031C305.858 452 305.858 452 305 454l-2 1c.65-5.957 2.212-11.416 4-17.125.544-1.752 1.086-3.505 1.625-5.258l.727-2.325c.682-2.413 1.187-4.827 1.648-7.292z" fill="#8d52ae"/><path d="M524 605l2 1c-1.1 6.311-2.581 12.063-5 18h-11v-5l2 2c2.655.565 5.291.738 8 1l.313-2.875c.678-4.86 2.196-9.463 3.687-14.125z" fill="#8d52ae"/><path d="M813.75 559.563c3.416.46 5.422 1.338 7.992 3.66 2.496 3.527 2.697 7.57 3.258 11.777l10 1v1h-13l-.313-4.25c-.32-2.657-.667-4.702-1.687-7.188-3.23-2.522-7.017-2.927-11-3.562 2-2 2-2 4.75-2.438z" fill="#8d52ae"/><path d="M120 518c3.736 4.598 3.736 4.598 5.25 6.902 5.259 7.784 12.63 12.116 21.75 14.098v1c-8.2-.134-13.71-2.74-20-8-3.935-4.447-7-7.939-7-14z" fill="#8d52ae"/><path d="M849 413h1v10l-26-1v-5l1 3h24v-7z" fill="#8d52ae"/><path d="M367 445c1 3 1 3 .227 4.961l-1.247 2.2-1.35 2.403c-.475.825-.952 1.65-1.442 2.498l-1.409 2.51c-3.47 6.119-3.47 6.119-5.779 8.428-2.745.145-5.385.187-8.125.125l-2.285-.027c-1.864-.024-3.727-.06-5.59-.098v-1l2.852.098c7.045.154 7.045.154 13.168-2.746 1.557-2.378 2.764-4.783 3.98-7.352a650.297 650.297 0 013.875-6.563c1.044-1.81 2.087-3.622 3.125-5.437z" fill="#8d52ae"/><path d="M528 548h24l-1 2h-21l-2 7h-1l1-9z" fill="#8d52ae"/><path d="M285 451h2c-.67 5.57-1.886 10.845-3.375 16.25l-.633 2.43-.64 2.336-.568 2.102c-.901 2.164-2.041 3.342-3.784 4.882a668.813 668.813 0 012-15h2l.402-1.828.536-2.422.527-2.39c.483-2.129.997-4.245 1.535-6.36z" fill="#8d52ae"/><path d="M535 409c3 1 3 1 3.95 2.672 1.382 3.891 2.444 7.13 2.05 11.328l-2-1a128.606 128.606 0 01-2-7c-1.796 2.693-2.427 4.146-3.125 7.188L533 426h-2c.416-6.195 1.603-11.267 4-17z" fill="#8d52ae"/><path d="M586.133 589.886l2.777.016 2.998.01 3.155.025 3.166.014c2.59.012 5.18.028 7.771.049l1 3c-3.625.058-7.25.094-10.875.125-1.033.017-2.065.034-3.129.05l-2.988.02-2.761.032C585 593 585 593 583 591c1-1 1-1 3.133-1.114z" fill="#8d52ae"/><path d="M581 476h2a1921.51 1921.51 0 013.5 11.125l1.012 3.172.957 3.086.888 2.825c.694 3.014.754 5.71.643 8.792-1.683-2.525-2.488-4.134-3.375-6.938a298.68 298.68 0 00-2.707-8.144l-1.106-3.168-1.042-2.953c-.756-2.746-.92-4.966-.77-7.797z" fill="#8d52ae"/><path d="M206 443h1c-.568 5.797-1.738 10.98-3.563 16.5L201 467h-16v-1l13-1c2.177-4.91 4.029-9.831 5.688-14.938l.681-2.072c.547-1.662 1.09-3.326 1.631-4.99z" fill="#8d52ae"/><path d="M414 444l2 1v35h-1l-.184-2.957-.253-3.856-.247-3.832c-.188-3.347-.188-3.347-1.316-6.355-.096-2.678-.14-5.323-.125-8l-.012-2.195c.006-3.198.119-5.75 1.137-8.805z" fill="#8d52ae"/><path d="M655 419c3.32 2.213 3.523 2.733 4.605 6.36.262.868.523 1.737.791 2.632l.791 2.758.827 2.71c1.36 4.625 2.35 8.667 1.986 13.54-2-1-2-1-2.87-3.269l-.857-2.973-.937-3.23-.961-3.403-.984-3.379C655 422.42 655 422.42 655 419z" fill="#8d52ae"/><path d="M572 448c2.535 2.233 3.595 4.064 4.605 7.273l.791 2.5.791 2.602.827 2.578c1.3 4.184 2.136 7.63 1.986 12.047-2-1-2-1-2.87-3.177-.282-.94-.565-1.879-.857-2.846l-.937-3.094-.961-3.258-.984-3.234C572 451.415 572 451.415 572 448z" fill="#8d52ae"/><path d="M786 377v2l-1.871.594c-8.962 3.164-14.54 8.788-21.129 15.406.494-4.278 2.932-7.178 6-10 11.36-8 11.36-8 17-8z" fill="#8d52ae"/><path d="M137 511c1.5 1.375 1.5 1.375 3 3v2c6.053 3.138 11.23 4.44 18 5l1 3c-6.886.599-13.069-1.218-18.75-5.238-1.375-1.262-1.375-1.262-3.25-3.762v-4z" fill="#8d52ae"/><path d="M196 421h1c.344 4.586-.498 7.695-2.215 11.84-1.1 3.025-1.581 6.102-2.062 9.277-.723 1.883-.723 1.883-2.79 3.14-.637.246-1.276.49-1.933.743v-2h2l.25-3.688c.601-5.542 1.7-15.263 5.75-19.312z" fill="#8d52ae"/><path d="M704 420h1c-.342 6.272-1.697 11.992-3.438 18l-.658 2.322c-.571 1.913-1.23 3.799-1.904 5.678l-2 1c.523-6.62 1.847-12.318 4.063-18.563l.853-2.478c.686-1.99 1.384-3.975 2.084-5.959z" fill="#8d52ae"/><path d="M508 507l1 4c-8.31 1.466-17.348 1.826-25-2h24v-2z" fill="#8d52ae"/><path d="M824 463h1c.504 9.972.365 16.71-6.063 24.5C817 489 817 489 814 489v-2l2.25-1.438c6.127-5.71 7.223-14.527 7.75-22.562z" fill="#8d52ae"/><path d="M695 378l2 2a2219.44 2219.44 0 01-3.375 11.438l-.96 3.298-.938 3.135-.857 2.904C690 403 690 403 688 404c.563-6.21 2.002-11.628 4.063-17.5l.853-2.492c.688-2.005 1.385-4.007 2.084-6.008z" fill="#8d52ae"/><path d="M714 605c2.843 2.468 4.159 5.085 5.688 8.5l1.324 2.906C722 619 722 619 722 622h14v1h-15c-6.295-12.054-6.295-12.054-7-18z" fill="#8d52ae"/><path d="M132 316c2.18.348 2.18.348 4 1l-1.54.96c-7.487 5.077-11.276 11.693-14.46 20.04h-1c.254-7.099 2.341-10.736 7-16l1.59-1.871c1.535-1.692 1.535-1.692 4.41-4.129z" fill="#8d52ae"/><path d="M336 521h16v2h5v1h-26v-1h5v-2z" fill="#8d52ae"/><path d="M171 444c3.778 2.366 5.192 4.875 7.063 8.875 1.443 3.055 2.86 5.998 4.62 8.883C184 464 184 464 184 466c-3.532-1.177-3.746-1.79-5.48-4.93l-1.338-2.41-1.37-2.535-1.404-2.512C171 447.4 171 447.4 171 444z" fill="#8d52ae"/><path d="M333 393h2c.844 2.539 1.675 5.08 2.5 7.625l.723 2.16c1.35 4.208 2.06 7.737 1.777 12.215-2.954-3.386-3.998-6.7-5.188-11l-1.042-3.688C333 397 333 397 333 393z" fill="#8d52ae"/><path d="M273.75 328.438l3.594.158c2.886.128 5.77.263 8.656.404v1c-3.291.17-6.583.336-9.875.5l-2.781.145c-8.524.42-16.908.822-25.344-.645v-1c8.658-.947 17.058-.99 25.75-.563z" fill="#8d52ae"/><path d="M548 449c2 1 2 1 3.125 4.25.731 3.134 1.156 5.57.875 8.75-1 1-1 1-4.563 1.063L544 463v-2l-4-1h10l-1-2.688c-.912-3.021-1.183-5.196-1-8.312z" fill="#8d52ae"/><path d="M289 607c3.938.12 5.89 1.551 8.625 4.188 3.584 3.818 6.212 7.315 6.563 12.687L304 626c-1.047-1.57-2.085-3.15-3.008-4.797-2.812-4.916-6.025-8.29-10.418-11.855L289 608v-1z" fill="#8d52ae"/><path d="M806 563c1.135 3.404.908 3.74-.395 6.871-2.133 5.991-2.165 11.886-2.293 18.192l-.103 3.49A993.19 993.19 0 00803 600h-1c-.059-4.146-.094-8.291-.125-12.438-.017-1.164-.034-2.329-.05-3.529-.038-6.673.277-12.616 2.175-19.033l2-2z" fill="#8d52ae"/><path d="M216 357c2.291-.08 4.583-.14 6.875-.188l3.867-.105L230 357c2.29 3.435 2.178 4.985 2 9-2-3-2-3-3-6a531.951 531.951 0 00-5.875-.125l-3.305-.07c-2.957-.106-2.957-.106-4.82 2.195l1-5z" fill="#8d52ae"/><path d="M880.547 508.805l2.558.02 2.645.05 2.691.027c2.187.024 4.373.057 6.559.098v3l-23-1c3.686-1.843 4.721-2.247 8.547-2.195z" fill="#8d52ae"/><path d="M847 481h1c.316 4.768-.428 7.505-2.813 11.625l-1.582 2.79A73.752 73.752 0 01839 502l-3-1 1.39-1.836c4.247-5.8 7.281-11.365 9.61-18.164z" fill="#8d52ae"/><path d="M886 549c3.859.27 5.681.733 8.688 3.25 4.685 5.572 5.677 8.571 5.312 15.75-2-3-2-3-2.875-6.375-1.626-5.24-3.58-7.763-8.375-10.438L886 550v-1z" fill="#8d52ae"/><path d="M320 406c2.69 2.69 3.466 5.778 4.625 9.313l.695 2.013c1.218 3.663 1.964 6.81 1.68 10.674h-2a1515.66 1515.66 0 01-2.5-8.188l-.723-2.33c-1.18-3.926-2.11-7.332-1.777-11.482z" fill="#8d52ae"/><path d="M263 467h2l.375 2.938L266 473l2 1c1.507 4.503 2.306 9.254 2 14-2.822-2.822-3.496-6.207-4.625-9.938l-.695-2.208c-.939-3.047-1.68-5.648-1.68-8.854z" fill="#8d52ae"/><path d="M232 367c3.738 2.492 3.925 4.014 5.188 8.25l1.042 3.39c.745 3.253.916 6.039.77 9.36-2-1-2-1-3.29-4.71a475.106 475.106 0 01-1.335-4.665l-.695-2.367c-.93-3.23-1.68-5.874-1.68-9.258z" fill="#8d52ae"/><path d="M723 550c4.424.506 6.78 1.95 10 5 2.568 3.454 3.368 5.703 3 10-2.531-1.266-2.621-2.183-3.688-4.75-2.203-4.667-5.008-6.519-9.312-9.25v-1z" fill="#8d52ae"/><path d="M833 503h2c-1.436 3.66-3.04 4.907-6.5 6.688l-2.406 1.261c-3.679 1.846-5.925 2.142-10.094 2.051 3.906-2.604 8.066-4.517 12.285-6.563 2.77-1.296 2.77-1.296 4.715-3.437z" fill="#8d52ae"/><path d="M177 424c2.76 3.185 5.077 6.561 7.313 10.125l1.613 2.57C187 439 187 439 186 442a2425.166 2425.166 0 01-4.395-6.61 144.705 144.705 0 00-2.93-4.218c-1.113-1.547-1.113-1.547-2.675-4.172l1-3z" fill="#8d52ae"/><path d="M647 393h2a556.32 556.32 0 012 5.625l1.125 3.164c.88 3.229 1.035 5.883.875 9.211-2.389-2.89-3.651-5.403-4.688-9-.25-.846-.502-1.691-.761-2.563C647 397 647 397 647 393z" fill="#8d52ae"/><path d="M807.125 373.438l2.285.158c1.864.13 3.727.266 5.59.404-3.595 2.26-6.566 2.209-10.75 2.125l-3.547-.055L798 376l-1-2c3.213-1.607 6.63-.825 10.125-.563z" fill="#8d52ae"/><path d="M241 669c1.96 1.96 2.64 3.211 3.75 5.688 2.116 4.384 4.937 7.778 8.25 11.312-3.473-.564-4.913-1.609-7.125-4.313l-1.508-1.8c-2.693-3.717-3.623-6.271-3.367-10.887z" fill="#8d52ae"/><path d="M257 628h1l-1 31h-1c-.226-4.416-.428-8.833-.625-13.25l-.195-3.8-.157-3.653-.158-3.364c.134-2.922.606-4.48 2.135-6.933z" fill="#8d52ae"/><path d="M192 328h32v3l-1.593-.48c-2.997-.647-5.858-.739-8.923-.836l-3.789-.127-3.945-.12-3.992-.13c-3.253-.106-6.505-.208-9.758-.307v-1z" fill="#8d52ae"/><path d="M775 507c2.832.922 5.629 1.844 8.375 3 3.484 1.327 6.998 2.14 10.625 3v1c-6.631.491-12.186-.611-18-4l-1-3z" fill="#8d52ae"/><path d="M510 574c1.84 2.76 2.683 4.746 3.625 7.875.26.843.52 1.686.79 2.555.595 2.612.69 4.9.585 7.57h-2c-.696-2.623-1.382-5.248-2.063-7.875l-.603-2.262c-1.447-5.636-1.447-5.636-.334-7.863z" fill="#8d52ae"/><path d="M229 413c2 1 2 1 3.105 4.02l1.083 3.793 1.105 3.769c.639 3.087.84 4.55-.293 7.418-1.01-2.663-2.01-5.33-3-8l-1.188-3.188c-.798-2.763-.98-4.954-.812-7.812z" fill="#8d52ae"/><path d="M788 401h2c-1.222 2.547-2.557 4.94-4 7.375-1.794 3.099-2.991 6.179-4 9.625h-1c-.775-6.045 1.775-10.113 5-15l2-2z" fill="#8d52ae"/><path d="M239 389h2c.677 2.038 1.341 4.08 2 6.125l1.125 3.445c.844 3.309 1.04 6.035.875 9.43-2.114-3.172-3.02-5.864-4.125-9.5l-1.07-3.469C239 392 239 392 239 389z" fill="#8d52ae"/><path d="M611 549v13h-1l-1-12h-17v-1c2.791-.194 5.583-.38 8.375-.563l2.406-.17c5.992-.38 5.992-.38 8.219.733z" fill="#8d52ae"/><path d="M768 547l1 2-14 1-2 9h-1v-11l16-1z" fill="#8d52ae"/><path d="M813 489l-1 2c-3.067 1.022-5.287 1.166-8.5 1.188l-2.906.042C798 492 798 492 795 490c1.875-.17 3.75-.336 5.625-.5l3.164-.281c3.082-.21 6.123-.256 9.211-.219z" fill="#8d52ae"/><path d="M343 426h2a556.32 556.32 0 012 5.625l1.125 3.164c.88 3.229 1.035 5.883.875 9.211-2.01-3.015-2.992-5.575-4.125-9l-1.07-3.188C343 429 343 429 343 426z" fill="#8d52ae"/><path d="M610 610h1v13l-3-1v-10h2v-2z" fill="#8d52ae"/><path d="M250 609l2 1-1.426 1.758c-3.395 4.26-6.394 8.24-8.574 13.242h-1c-.32-4.078.255-5.952 2.813-9.125l1.582-2.008A72.31 72.31 0 01250 609z" fill="#8d52ae"/><path d="M704.848 594.902L711 595c1.563 2.813 1.563 2.813 3 6l-1 3c-3-4.75-3-4.75-3-7l-2.313.625C705 598 705 598 702 596c1-1 1-1 2.848-1.098z" fill="#8d52ae"/><path d="M384 521l13 1c-3.1 2.067-3.73 2.245-7.23 2.195l-2.432-.02-2.526-.05-2.56-.027c-2.084-.024-4.168-.06-6.252-.098v-1h8v-2z" fill="#8d52ae"/><path d="M264 509c6.57-.248 12.57.676 19 2v1h-16v-2l-3-1z" fill="#8d52ae"/><path d="M636 423c3.002 1.5 3.367 3.798 4.469 6.855.726 2.932.324 5.263-.469 8.145-2-3-2-3-2-6l-2-1v-8z" fill="#8d52ae"/><path d="M687 405c1.38 3.767.596 6.448-.438 10.25l-.87 3.266L685 421h-2c.392-5.955 1.371-10.628 4-16z" fill="#8d52ae"/><path d="M418 533c-1 3-1 3-2.602 4.133-4.54 2.226-8.351 3.446-13.398 3.867v-2c.675-.182 1.35-.364 2.047-.55l2.703-.763 2.672-.738C412.539 535.801 414.73 533 418 533z" fill="#8d52ae"/><path d="M429 517c.75 1.625.75 1.625 1 4-2.281 3.971-5.092 7.47-8 11l-3-1 1.426-1.54c3.591-3.97 6.476-7.524 8.574-12.46z" fill="#8d52ae"/><path d="M117 498h1l2 18-3-2c-.547-3.188-.547-3.188-.75-7l-.234-3.813C116 500 116 500 117 498z" fill="#8d52ae"/><path d="M674 446h2c-.592 4.831-1.43 9.384-3 14l-2 1c.551-5.239 1.43-9.974 3-15z" fill="#8d52ae"/><path d="M509 419h1c-.601 5.65-2.075 10.662-4 16h-1c.392-5.955 1.371-10.628 4-16z" fill="#8d52ae"/><path d="M757 403h2a872.675 872.675 0 01-.875 6.875l-.492 3.867C757 417 757 417 755 419c-.204-5.738-.271-10.605 2-16z" fill="#8d52ae"/><path d="M407 313c6.674.284 10.71 3.078 16 7-3 1-3 1-6.137-.434a241.85 241.85 0 01-3.55-2.003l-1.838-1.026A522.851 522.851 0 01407 314v-1z" fill="#8d52ae"/><path d="M151 310l1 3c-1.582.338-3.166.67-4.75 1l-2.672.563C142 315 142 315 138 315v-2c4.326-1.583 8.429-2.451 13-3z" fill="#8d52ae"/><path d="M854 561c2 2 2 2 2.266 4.242l-.016 2.633.016 2.617c-.277 2.613-.947 4.258-2.266 6.508a557.204 557.204 0 01-.563-5.188l-.316-2.917c-.119-2.837.201-5.15.879-7.895z" fill="#8d52ae"/><path d="M813.75 559.563c4.45.599 6.033 2.374 9.25 5.437l-2 3-.938-1.875c-3.107-3.202-6.766-3.44-11.062-4.125 2-2 2-2 4.75-2.438z" fill="#8d52ae"/><path d="M359 430c0 3.94-1.478 5.83-3.5 9.188l-1.969 3.292L352 445c-1-3-1-3 .145-5.664l1.668-2.961 1.644-2.977C357 431 357 431 359 430z" fill="#8d52ae"/><path d="M144 331l2 1c-1.566 2.193-3.093 4.088-5.063 5.938-2.107 2.243-2.971 4.164-3.937 7.062l-2-1c.65-1.673 1.32-3.339 2-5l.813-2.063c1.606-2.62 3.733-4.129 6.187-5.937z" fill="#8d52ae"/><path d="M241 570c2.49 3.236 4.736 6.604 7 10a241.92 241.92 0 003 4c-2.784-.357-3.813-.788-5.703-2.926l-1.547-2.386-1.578-2.364C241 574 241 574 241 570z" fill="#8d52ae"/><path d="M280 621c2.865.637 4.56 1.368 6.258 3.809 1.081 2.06 2.062 3.963 2.742 6.191l-1 3c-1.978-1.978-2.812-3.445-4-5.938-1.214-2.536-2.428-4.704-4-7.062z" fill="#8d52ae"/><path d="M305 540h1l1 16-1-4h-2a559.991 559.991 0 01-.063-4.313l-.035-2.425C304 543 304 543 305 540z" fill="#8d52ae"/><path d="M277 480h1c-.467 5.414-1.243 9.205-4 14-1.371-3.69-.6-5.709.938-9.25l1.152-2.703L277 480z" fill="#8d52ae"/><path d="M517 389h3c-.448 1.981-.909 3.96-1.375 5.938l-.773 3.34L517 401l-2 1c.142-1.417.289-2.834.438-4.25.08-.789.162-1.578.246-2.39.292-2.184.737-4.237 1.316-6.36z" fill="#8d52ae"/><path d="M519 579h2c-.595 9.595-.595 9.595-4 13-.193-4.824.243-8.496 2-13z" fill="#8d52ae"/><path d="M493 469h3c-.448 1.981-.909 3.96-1.375 5.938l-.773 3.34L493 481l-2 1c.142-1.417.289-2.834.438-4.25.08-.789.162-1.578.246-2.39.292-2.184.737-4.237 1.316-6.36z" fill="#8d52ae"/><path d="M411 512h2c-1.345 4.403-3.16 6.472-7 9h-3v-2a748.858 748.858 0 016-4l2-3z" fill="#8d52ae"/><path d="M331 441c3.357 3.662 4.162 7.202 5 12l-2 3a498.676 498.676 0 01-1.5-4.688l-.844-2.636c-.655-2.67-.774-4.94-.656-7.676z" fill="#8d52ae"/><path d="M137 442h14v1h-6l-1 2-8-1 1-2z" fill="#8d52ae"/><path d="M203 395h3a716.06 716.06 0 01-1.375 4.813l-.773 2.707C203 405 203 405 201 408c.141-1.605.288-3.209.438-4.813.08-.893.162-1.786.246-2.707C202 398 202 398 203 395z" fill="#8d52ae"/><path d="M821 479l2 3a271.11 271.11 0 01-2.813 3.5l-1.582 1.969C817 489 817 489 814 489v-2l2.375-1.875c2.487-2.014 3.48-3.211 4.625-6.125z" fill="#8d52ae"/><path d="M554 389h2c1.591 4.177 2.213 7.532 2 12l-2-1c-.633-2.504-.633-2.504-1.125-5.563l-.508-3.066L554 389z" fill="#8d52ae"/><path d="M241 453c2 1 2 1 3.125 3.75.795 2.952 1.053 5.222.875 8.25-2-1-2-1-3.125-3.75-.795-2.952-1.053-5.222-.875-8.25z" fill="#8d52ae"/><path d="M137 511c1.5 1.375 1.5 1.375 3 3v2l1.875.875C144 518 144 518 146 520l-3 1a176.47 176.47 0 01-3-2.75l-1.688-1.547C137 515 137 515 137 511z" fill="#8d52ae"/><path d="M213 363h2c-.468 4.056-.88 7.466-3 11h-1c.875-7.625.875-7.625 2-11z" fill="#8d52ae"/><path d="M255 661l3 1c.95 2.285.95 2.285 1.688 5.063.25.919.502 1.838.761 2.785L261 672c-2.653-2.476-4.68-4.59-6-8v-3z" fill="#8d52ae"/><path d="M885 623l-1 2c-4.466 1.489-8.449.694-13 0v-1c4.763-.953 9.167-1.083 14-1z" fill="#8d52ae"/><path d="M896 616l1 3c-3.797 2.826-6.186 4.566-11 4 1.845-1.845 3.307-2.824 5.563-4.063 3.177-1.588 3.177-1.588 4.437-2.937z" fill="#8d52ae"/><path d="M834 613l1 3c-.9 1.035-1.82 2.053-2.75 3.063l-1.547 1.722C829 622 829 622 826.797 621.684L825 621l1.46-.988 1.915-1.324 1.898-1.301c1.99-1.456 1.99-1.456 3.727-4.387z" fill="#8d52ae"/><path d="M871 609l11 1-1 2c-1.48-.114-2.96-.241-4.438-.375-.823-.07-1.647-.14-2.496-.21L872 611l-1-2z" fill="#8d52ae"/><path d="M895 588h3c2.91 3.665 3.321 6.394 3 11-2.652-2.652-3.585-5.554-5-9l-1-2z" fill="#8d52ae"/><path d="M797 551l4 2-2.25 1.313A73.35 73.35 0 00792 559c.542-3.796 2.201-5.472 5-8z" fill="#8d52ae"/><path d="M617 509h8l-1 3h-8l1-3z" fill="#8d52ae"/><path d="M327 429c2 1 2 1 3.188 3.813.776 3.047.913 4.324-.188 7.187-2.153-3.858-3.393-6.551-3-11z" fill="#8d52ae"/><path d="M199 409h2a440.837 440.837 0 01-.875 4.938l-.492 2.777L199 419l-2 1c.875-7.625.875-7.625 2-11z" fill="#8d52ae"/><path d="M301 403h1c-.508 4.318-1.197 8.033-3 12h-1c.857-8.571.857-8.571 3-12z" fill="#8d52ae"/><path d="M819 404c3 1 3 1 4.188 3.188.885 3.066.96 5.636.812 8.812l-2-4-1.625-3.125C819 406 819 406 819 404z" fill="#8d52ae"/><path d="M329 380c2 1 2 1 3.125 3.75.795 2.952 1.053 5.222.875 8.25l-2-1c-.633-2.504-.633-2.504-1.125-5.563l-.508-3.066L329 380z" fill="#8d52ae"/><path d="M297 680l1 3c-4.395 4.004-4.395 4.004-6 5l-3-1 8-7z" fill="#8d52ae"/><path d="M664 448h2c1.423 3.823 2.24 6.913 2 11-3.15-3.423-3.562-6.443-4-11z" fill="#8d52ae"/><path d="M414 444l2 1c.25 7.625.25 7.625-2 11a430.695 430.695 0 01-.563-4.313l-.316-2.425C413 447 413 447 414 444z" fill="#8d52ae"/><path d="M568 435c2.042 1.692 2.918 2.637 3.512 5.262l.176 2.425.199 2.45L572 447c-3.538-3.692-3.591-7.094-4-12z" fill="#8d52ae"/><path d="M859 553h2l-5 10c-.75-1.625-.75-1.625-1-4 1.813-3.25 1.813-3.25 4-6z" fill="#8d52ae"/><path d="M508 507l1 4c-6.055.977-6.055.977-8 1l-2-2 9-1v-2z" fill="#8d52ae"/><path d="M196 421h1c.196 4.219-.198 7.17-2 11h-1c-.286-7.429-.286-7.429 2-11z" fill="#8d52ae"/><path d="M257 628h1l-1 12h-1c-1.429-8.571-1.429-8.571 1-12z" fill="#8d52ae"/><path d="M513 490h1l-1 9h-2c.875-7.875.875-7.875 2-9z" fill="#8d52ae"/><path d="M290 435h3l-3 9h-1l1-9z" fill="#8d52ae"/><path d="M323 419h2c1.858 3.135 2.201 5.375 2 9h-2l-2-9z" fill="#8d52ae"/><path d="M482 611h1v11l-3-4c.813-3.75.813-3.75 2-7z" fill="#8d52ae"/><path d="M868 599l2 1-.188 2.813c-.12 3.171-.12 3.171 1.688 5.062L873 609l-3 1c-3.077-5.292-3.077-5.292-2.688-8.875L868 599z" fill="#8d52ae"/><path d="M861 585c3.821.53 6.062 1.497 9 4l-3 1c-3.188-1.875-3.188-1.875-6-4v-1z" fill="#8d52ae"/><path d="M831 552c5.571 5.143 5.571 5.143 6 9h-2c-4-5.294-4-5.294-4-9z" fill="#8d52ae"/><path d="M258 508l9 2c-3 2-3 2-6.188 1.625L258 511v-3z" fill="#8d52ae"/><path d="M486 493h3l-3 9h-1l1-9z" fill="#8d52ae"/><path d="M489 483h2c-.586 6.152-.586 6.152-1 8l-2 1 1-9z" fill="#8d52ae"/><path d="M368 442l1.688.438c2.426.59 4.861 1.085 7.312 1.562v1l-3.375.438c-3.446.346-3.446.346-5.625 1.562l-1-3 1-2z" fill="#8d52ae"/><path d="M835 383l7 6-3 1c-2-1.813-2-1.813-4-4v-3z" fill="#8d52ae"/><path d="M714 605c2.523 1.974 2.993 2.967 3.688 6.188L718 614c-2.523-1.974-2.993-2.967-3.688-6.188L714 605z" fill="#8d52ae"/><path d="M843 423h5v1h-5v-1z" fill="#8d52ae"/><path d="M192 469l4 1z" fill="#8d52ae"/><path d="M546 452l2 3h-2v-3z" fill="#8d52ae"/><path d="M593 576l3 1z" fill="#8d52ae"/><path d="M356 543l3 1z" fill="#8d52ae"/><path d="M836 423l3 1z" fill="#8d52ae"/><path d="M830 423l3 1z" fill="#8d52ae"/><path d="M276 694l2 1z" fill="#8d52ae"/><path d="M894 584l2 1z" fill="#8d52ae"/><path d="M242 580l2 1z" fill="#8d52ae"/><path d="M597 576l2 1z" fill="#8d52ae"/><path d="M902 572l2 1z" fill="#8d52ae"/><path d="M817 565l2 1z" fill="#8d52ae"/><path d="M320 543l2 1z" fill="#8d52ae"/><path d="M307 543l2 1z" fill="#8d52ae"/><path d="M279 543l2 1z" fill="#8d52ae"/><path d="M276 543l2 1z" fill="#8d52ae"/><path d="M176 543l2 1z" fill="#8d52ae"/><path d="M816 483l2 1z" fill="#8d52ae"/><path d="M411 446l2 1z" fill="#8d52ae"/><path d="M752 401l2 1z" fill="#8d52ae"/><path d="M209 368l2 1z" fill="#8d52ae"/></svg>