<svg xmlns="http://www.w3.org/2000/svg" width="1024" height="1024"><path d="M313.468 175.746a5108.214 5108.214 0 0120.384-.007c5.376.004 10.752-.003 16.128-.008 10.514-.01 21.028-.007 31.542-.002 8.542.005 17.085.006 25.628.003h3.689l7.42-.003c23.162-.005 46.325.001 69.488.012 19.879.009 39.757.007 59.636-.002a95010.725 95010.725 0 0176.672-.007l3.67.001c8.537.002 17.075 0 25.613-.006 10.396-.005 20.792-.004 31.188.007 5.305.005 10.61.007 15.915 0 4.854-.005 9.707-.002 14.56.009 1.759.002 3.517 0 5.275-.004 2.385-.006 4.77 0 7.156.01l2.078-.015c4.206.033 7.575.758 11.49 2.266l3.035 1a1440256865.587 1440256865.587 0 016.063 2c6.01 2.07 10.306 4.254 15.214 8.313 4.072 3.368 4.072 3.368 8.258 6.59 11.112 9.593 18.169 26.032 19.802 40.36.137 3.28.162 6.54.136 9.823l.019 3.753c.013 3.395.008 6.788-.004 10.183-.01 3.677.005 7.355.016 11.033.018 7.187.014 14.374.002 21.562a7649.053 7649.053 0 00-.004 20.068l.004 5.088c.011 15.875-.002 31.75-.023 47.625-.018 13.595-.015 27.19.003 40.784a22273.102 22273.102 0 01.012 55.048c-.003 5.832.003 11.665.012 17.498.011 7.117.008 14.235-.013 21.352-.01 3.625-.015 7.25-.001 10.876.08 24.022-1.967 44.889-19.333 62.967A261.867 261.867 0 01770 578l-2.363 2.273c-4.709 4.131-9.718 6.975-15.387 9.54l-1.839.843c-12.044 5.092-24.375 5.78-37.239 5.685h-4.912c-4.4.002-8.8-.016-13.2-.037-4.615-.019-9.23-.02-13.845-.024-8.719-.01-17.438-.034-26.157-.064-9.935-.034-19.87-.05-29.804-.065-20.418-.031-40.836-.084-61.254-.151l.02 2.255c.06 7.046.106 14.093.135 21.139.016 3.622.037 7.243.071 10.865.033 3.501.05 7.003.059 10.504.008 1.972.031 3.945.055 5.917.002 10.762-1.646 19.411-9.34 27.32-6.297 4.716-12.497 5.216-20.063 5.625l-2.47.156-2.377.133-2.16.124C526 680 526 680 523 679c-.01 4.149.057 8.287.195 12.433.036 1.407.052 2.814.045 4.222-.013 4.654.232 8.896 1.76 13.345 3.633 3.321 7.55 5.008 12 7 17.578 12.858 27.256 35.107 31 56 .526 3.668.828 7.299 1 11l.16 2.906c.686 23.612-6.019 47.482-22.16 65.094-9.648 10.22-21.727 17.338-36 18-10.715.064-20.85-.9-30-7l-2 1-1-3c-1.593-1.577-1.593-1.577-3.563-3.125C458.652 843.312 450.677 825.527 448 805c-.295-4.9-.334-9.78-.313-14.687l.007-2.008c.138-26.394 7.554-48.672 25.822-67.961C478.82 715.34 484.497 712.25 491 709l1-30-9.438.313c-8.966.102-14.585-.736-21.312-6.922-7.688-8.058-7.71-17.132-7.762-27.735l-.054-4.136c-.047-3.603-.077-7.206-.104-10.81-.03-3.687-.076-7.374-.121-11.062-.086-7.216-.153-14.432-.209-21.648l-2.535-.007c-20.41-.06-40.819-.135-61.228-.229-9.87-.045-19.74-.084-29.61-.11a9816.51 9816.51 0 01-25.825-.103c-4.553-.024-9.106-.042-13.659-.049-4.297-.006-8.593-.026-12.89-.056a701.553 701.553 0 00-4.698-.011c-12.926.01-26.2-.771-37.805-7.06l-2.008-1.058c-15.893-8.661-27.368-22.75-32.586-40.128-3.015-12.822-2.585-25.818-2.548-38.919.007-3.617-.004-7.235-.012-10.852-.013-7.068-.01-14.135-.002-21.202.007-5.748.008-11.496.005-17.244l-.002-2.488-.003-5.005c-.008-15.608.001-31.216.018-46.825.013-13.367.01-26.735-.003-40.102a28722.2 28722.2 0 01-.01-51.658l.001-2.476c.003-5.736-.002-11.472-.009-17.208-.008-6.997-.006-13.995.01-20.992.008-3.565.011-7.129.001-10.693-.01-3.877.002-7.753.017-11.63l-.02-3.358c.152-20.508 7.328-37.954 21.436-52.658 18.558-17.11 40.449-19.2 64.433-19.133zm-44.71 46c-5.324 6.826-7.886 13.772-7.878 22.354l-.004 3.79.01 4.15v4.376c0 3.958.006 7.917.013 11.875.006 4.137.006 8.275.008 12.412.003 7.834.01 15.668.021 23.502.011 8.919.017 17.838.022 26.756.01 18.347.028 36.693.05 55.039l1.9-.013c6.57-.045 13.142-.075 19.713-.097 2.447-.01 4.893-.023 7.34-.04 3.533-.025 7.065-.037 10.598-.045l3.275-.032c10.976-.001 20.401.512 28.522 8.551L335 397l2.535 2.5 2.527 2.5 2.536 2.5c2.302 2.395 4.371 4.873 6.402 7.5l3-1a67.024 67.024 0 002.645-6.898l.745-2.194c.82-2.424 1.62-4.853 2.422-7.283.579-1.725 1.158-3.45 1.738-5.173A2921.444 2921.444 0 00365 373l.86-2.616c4.785-14.554 9.5-29.131 14.215-43.707 2.282-7.05 4.569-14.1 6.86-21.146a4267.22 4267.22 0 002.223-6.862C399.926 265.331 399.926 265.331 407 261c5.155-2.577 10.483-2.357 16-1a92.623 92.623 0 014 3h2c6.459 12.002 9.264 26.638 12.937 39.688a9844.72 9844.72 0 003.028 10.699l.75 2.648c2.25 7.91 4.608 15.785 6.99 23.656A698.607 698.607 0 01456 351c.957 3.329 1.918 6.657 2.879 9.984l.861 2.986c1.6 5.544 3.2 11.088 4.802 16.631 3.54 12.259 7.068 24.52 10.57 36.79 1.164 4.071 2.33 8.142 3.496 12.212a6272 6272 0 013.385 11.87c.87 3.053 1.745 6.104 2.62 9.156l.952 3.364.885 3.076.765 2.68c.763 2.488.763 2.488 2.785 5.251.514 2.076.514 2.076.914 4.469 1.082 5.814 2.717 11.385 4.461 17.031l.883 2.934c1.937 6.33 4.183 12.462 6.742 18.566h2c7.756-22.38 15.29-44.81 22.39-67.408 3.052-9.709 6.17-19.386 9.422-29.03 4.05-12.018 7.936-24.085 11.79-36.167 2.06-6.46 4.128-12.918 6.194-19.376 1.806-5.644 3.61-11.29 5.408-16.936 1.803-5.659 3.619-11.314 5.441-16.967.689-2.142 1.374-4.284 2.054-6.429.948-2.985 1.91-5.965 2.875-8.945l.829-2.641c2.212-6.754 5.11-14.425 11.597-18.101 5.384-1.795 11.576-2.077 16.812.375 7.27 5.094 9.558 16.15 12.024 24.203l1.03 3.288c1.053 3.376 2.094 6.754 3.134 10.134l1.915 6.174c1.586 5.121 3.16 10.246 4.729 15.372 1.712 5.59 3.428 11.178 5.145 16.767l1.053 3.429a10069.763 10069.763 0 0012.089 38.997c1.688 5.42 3.378 10.841 5.069 16.261 3.233-3.132 6.107-6.284 8.777-9.906l2.057-2.754c1.4-1.892 2.8-3.785 4.195-5.68 5.067-6.771 9.805-12.63 17.971-15.66 3.682-.528 7.347-.61 11.062-.687l3.49-.102c22.14-.533 44.304-.291 66.448-.211.824-8.357 1.149-16.62 1.145-25.014l.01-3.76c.008-3.365.012-6.73.012-10.096l.006-6.333c.009-7.386.013-14.772.012-22.158 0-6.85.01-13.7.026-20.551.013-5.914.018-11.828.018-17.742 0-3.518.002-7.036.013-10.554.012-3.926.007-7.852 0-11.778.007-1.145.012-2.289.018-3.468-.053-13.6-1.501-24.791-11.198-34.858-7.26-6.852-13.83-9.867-23.812-10.305l-2.247-.114c-8.332-.388-16.661-.411-25-.403l-5.245-.007c-4.754-.006-9.508-.006-14.262-.004-5.145 0-10.291-.006-15.437-.01-10.059-.009-20.118-.011-30.177-.012-8.175 0-16.35-.003-24.526-.006-23.202-.009-46.403-.013-69.604-.012h-7.57c-20.284 0-40.569-.01-60.853-.023-20.849-.015-41.698-.022-62.548-.02-11.697 0-23.394-.003-35.09-.014-9.95-.01-19.901-.011-29.851-.005-5.075.004-10.15.004-15.224-.005-4.648-.008-9.295-.006-13.943.002-1.678.002-3.357 0-5.036-.005-15.631-.049-29.572.939-40.88 13.001zM414 329a328.4 328.4 0 00-7.434 19.922l-.952 2.807c-1.02 3.006-2.036 6.014-3.052 9.021a33467.08 33467.08 0 01-5.393 15.908 6185.42 6185.42 0 01-6.864 20.147l-.868 2.531c-1.104 3.22-2.208 6.44-3.314 9.66-2.482 7.235-4.962 14.47-7.342 21.738l-.968 2.955a712.717 712.717 0 00-1.636 5.08c-2.606 8.02-5.198 14.225-12.177 19.231-3.733 1.866-7.926 1.407-12 1-10.23-3.836-16.988-14.914-23.621-23.148-3.151-3.778-6.472-7.382-9.838-10.969-3.443-3.686-3.443-3.686-4.541-5.883-2.954-.985-4.852-1.121-7.93-1.114h-3.033l-3.267.016-3.35.005c-3.536.005-7.072.018-10.608.03-2.395.006-4.79.01-7.185.014-5.876.011-11.751.028-17.627.049a13515.71 13515.71 0 00-.207 45.247c-.02 7.003-.049 14.007-.095 21.01a4041.89 4041.89 0 00-.078 20.289c-.007 2.576-.021 5.153-.043 7.729-.03 3.617-.033 7.233-.031 10.85l-.044 3.206c.056 10.081 3.158 19.018 10.178 26.446 12.058 11.454 27.14 10.372 42.697 10.357l5.336.007c4.874.006 9.749.006 14.623.004 5.262 0 10.524.006 15.786.01 10.303.009 20.606.011 30.91.012 8.374 0 16.748.003 25.123.006 23.747.009 47.493.013 71.24.012h7.76c20.773 0 41.546.01 62.319.023 21.333.015 42.665.022 63.998.02 11.975 0 23.95.003 35.926.014 10.194.01 20.388.011 30.582.005 5.2-.004 10.4-.004 15.6.005 4.763.008 9.525.006 14.288-.002 1.72-.002 3.441 0 5.162.005 14.286.044 27.258-.394 38.306-10.509 12.496-13.112 11.091-29.479 10.992-46.387-.003-2.295-.005-4.59-.006-6.886a3894.2 3894.2 0 00-.04-14.372 4717.83 4717.83 0 01-.044-18.386c-.006-5.869-.02-11.737-.035-17.606l-.006-3.37c-.006-3.158-.02-6.316-.036-9.474l-.003-2.803A110.788 110.788 0 00760 418c-9.17-.116-18.341-.205-27.513-.26-4.259-.025-8.517-.06-12.775-.117-4.111-.055-8.222-.084-12.333-.097-1.567-.01-3.134-.028-4.701-.055a374.419 374.419 0 00-6.593-.039l-3.788-.033c-6.242 1.138-9.337 6.778-12.985 11.601l-2.636 3.469-1.345 1.777c-2.504 3.3-5.037 6.578-7.569 9.857a753.797 753.797 0 00-6.438 8.463l-1.338 1.774a1556.738 1556.738 0 00-3.662 4.883c-3.355 4.009-6.336 7.163-11.699 7.715-5.649.394-9.43-1.684-14.25-4.438-8.339-8.778-11.123-24.22-14.813-35.437-.7-2.117-1.402-4.233-2.104-6.35-5.504-16.645-10.853-33.34-16.116-50.062l-.845-2.68c-.517-1.64-1.032-3.28-1.544-4.922-1.182-3.75-2.425-7.422-3.953-11.049-1.703 2.554-2.509 4.201-3.401 7.046l-.78 2.464c-.275.88-.548 1.762-.83 2.67l-.883 2.795c-.936 2.966-1.865 5.933-2.794 8.9-1.21 3.852-2.422 7.704-3.636 11.555l-.92 2.92c-2.874 9.084-5.89 18.118-8.92 27.15-2.4 7.176-4.743 14.369-7.086 21.563l-.834 2.558a1724.601 1724.601 0 00-11.04 35.164c-3.282 10.858-6.572 21.713-10.189 32.465l-.876 2.703c-3.194 9.264-8.044 15.563-16.811 20.047-10.23 4.871-23.514 4.168-34.176 1.094-9.657-3.74-13.735-8.87-17.824-18.094-1.293-3.552-2.355-7.15-3.39-10.785l-.915-3.12c-.99-3.384-1.968-6.77-2.945-10.157a8435.7 8435.7 0 00-2.096-7.173c-1.095-3.742-2.19-7.485-3.281-11.229-3.68-12.624-7.445-25.222-11.217-37.819-4.936-16.495-9.86-32.993-14.656-49.53l-1.078-3.716c-2.289-7.93-2.289-7.93-2.888-10.363a147.105 147.105 0 00-1.75-6.234l-.727-2.426-.78-2.589-.802-2.673-2.538-8.436-1.72-5.727c-1.405-4.674-2.81-9.349-4.217-14.023h-1zm72 267c-.667 6.672-1.15 13.03-1.133 19.691l-.003 2.64c0 1.82.001 3.64.006 5.458.005 2.798 0 5.595-.007 8.393 0 1.774.002 3.548.004 5.322l-.006 2.54c-.353 3.785-.353 3.785 1.139 6.956 3.056.101 6.088.14 9.145.133l2.791.003c1.955 0 3.91-.001 5.864-.006 2.99-.005 5.978 0 8.968.007 1.896 0 3.793-.002 5.689-.004l2.712.006 2.537-.01 2.225-.002c2.42-.085 2.42-.085 6.069-1.127v-50l-2 1v-1h-44zm5.812 148.938c-10.625 12.933-13.348 28.823-13.187 45.125l-.035 3.564c.048 14.667 3.784 28.747 14.41 39.373 7.016 4.92 12.883 5.676 21.312 4.563 7.533-2.489 13.111-8.955 16.78-15.741 2.867-5.749 5.207-11.404 5.908-17.822l.398-3.473c1.686-19.01-.51-38.858-12.488-54.468-4.872-5.251-10.343-8.973-17.656-9.278-6.44.625-11.002 3.573-15.442 8.157z" fill="#8d52ae"/><path d="M308.953 206.499a2512.895 2512.895 0 0120.21-.007c5.328.01 10.658-.001 15.987-.01 10.43-.014 20.86-.006 31.29.009 12.152.016 24.304.013 36.456.01 21.685-.006 43.371.008 65.057.032 21.031.024 42.063.031 63.094.021a60949.982 60949.982 0 0176.078.006l3.645.002c8.466.005 16.931.003 25.397-.001 10.32-.005 20.641 0 30.961.02 5.264.01 10.527.015 15.79.008 4.822-.008 9.645 0 14.467.017 1.74.004 3.48.003 5.22-.003 13.2-.046 25.934.313 36.395 9.397a75.152 75.152 0 013 4c-4.2-.756-6.577-2.868-9.805-5.527-4.905-3.29-10.176-3.836-15.945-4.09l-2.247-.114c-8.332-.388-16.661-.411-25-.403l-5.245-.007c-4.754-.006-9.508-.006-14.262-.004-5.145 0-10.291-.006-15.437-.01-10.059-.009-20.118-.011-30.177-.012-8.175 0-16.35-.003-24.526-.006-23.202-.009-46.403-.013-69.604-.012h-7.57c-20.284 0-40.569-.01-60.853-.023-20.849-.015-41.698-.022-62.548-.02-11.697 0-23.394-.003-35.09-.014-9.95-.01-19.901-.011-29.851-.005-5.075.004-10.15.004-15.224-.005-4.648-.008-9.295-.006-13.943.002-1.678.002-3.357 0-5.036-.005-14.05-.044-27.528.42-38.45 10.442-6.29 6.782-9.291 14.792-9.345 23.913l-.03 3.79-.017 4.15-.03 4.376c-.027 3.958-.048 7.917-.068 11.875-.022 4.137-.05 8.275-.076 12.412-.05 7.834-.095 15.668-.138 23.502-.05 8.919-.105 17.838-.16 26.756-.114 18.347-.22 36.693-.323 55.039l2.264-.089c3.464-.135 6.928-.267 10.392-.4 1.175-.045 2.35-.092 3.56-.14a840.791 840.791 0 0124.284-.559l3.168-.029c8.98-.045 18.188.263 25.332 6.217 1.674 1.66 3.34 3.327 5 5 .963.943 1.928 1.884 2.895 2.824l2.917 2.863 1.522 1.471c1.26 1.243 2.468 2.539 3.666 3.842v2l3 1c.687 2.062.687 2.062 1 4-3.263-1.088-3.878-1.75-6-4.313l-1.848-2.16L340 405a468.443 468.443 0 00-5.438-6.25l-2.62-3.016c-7.424-7.388-15.331-7.334-25.286-7.343a1375.255 1375.255 0 00-14.946-.129c-3.687-.02-7.374-.062-11.062-.102-7.216-.075-14.432-.125-21.648-.16-.094-19.368-.164-38.735-.207-58.103-.02-8.993-.049-17.987-.095-26.98-.04-7.843-.065-15.685-.074-23.527-.006-4.15-.018-8.298-.047-12.448-.027-3.912-.035-7.825-.03-11.738a426.533 426.533 0 00-.024-4.286c-.143-13.906 2.784-23.78 12.477-33.918 10.593-10.262 24.05-10.585 37.953-10.501z" fill="#8d52ae"/><path d="M313.468 175.746a5108.214 5108.214 0 0120.384-.007c5.376.004 10.752-.003 16.128-.008 10.514-.01 21.028-.007 31.542-.002 8.542.005 17.085.006 25.628.003h3.689l7.42-.003c23.162-.005 46.325.001 69.488.012 19.879.009 39.757.007 59.636-.002a95010.725 95010.725 0 0176.672-.007l3.67.001c8.537.002 17.075 0 25.613-.006 10.396-.005 20.792-.004 31.188.007 5.305.005 10.61.007 15.915 0 4.854-.005 9.707-.002 14.56.009 1.759.002 3.517 0 5.275-.004 2.385-.006 4.77 0 7.156.01l2.078-.015c4.204.033 7.574.768 11.49 2.266 1.33.35 2.66.691 4 1v2l-3.843-.492c-8.202-.812-16.439-.642-24.671-.628-1.89 0-3.78-.002-5.669-.003-5.176-.002-10.353.002-15.53.007-5.587.004-11.176.003-16.764.002-9.676 0-19.353.003-29.03.008-13.99.008-27.981.011-41.972.012-22.7.002-45.4.01-68.1.019-22.048.009-44.097.016-66.146.02h-2.06l-20.487.004c-57.243.01-114.485.028-171.728.051l1-2c10.948-2.502 22.307-2.285 33.468-2.254z" fill="#8d52ae"/><path d="M259 416h54l1 2c-36.791 1.507-36.791 1.507-47.713.492l-3-.278L261 418c.037 15.082.097 30.164.184 45.247.04 7.003.072 14.007.087 21.01.014 6.764.05 13.526.097 20.289.015 2.576.023 5.152.024 7.729.002 3.617.03 7.233.062 10.85l-.015 3.206c.138 9.917 3.126 18.87 10.018 26.224 10.964 10.322 25.153 9.596 39.28 9.559h4.477c4.086 0 8.172-.006 12.258-.013 4.416-.006 8.832-.007 13.249-.008 7.66-.003 15.321-.01 22.982-.018 11.146-.012 22.292-.018 33.438-.023a146090.547 146090.547 0 0057.827-.034 1001200.958 1001200.958 0 0049.19-.039l3.241-.002c18.045-.014 36.09-.024 54.134-.03 10.09-.004 20.178-.01 30.268-.022 46.41-.053 92.797.13 139.199 1.075-2.418 2.418-3.662 2.24-6.96 2.27l-2.109-.013c-1.11.006-1.11.006-2.242.01-2.505.01-5.01.005-7.515 0l-5.412.014c-4.977.012-9.955.012-14.933.01-5.36 0-10.721.01-16.082.02-10.513.017-21.026.022-31.539.023-8.546.001-17.092.005-25.638.012-24.221.017-48.442.026-72.662.025h-7.926c-21.192-.001-42.385.018-63.577.046-21.75.029-43.501.042-65.252.04-12.215 0-24.43.006-36.644.027-10.405.018-20.81.023-31.215.009-5.307-.006-10.615-.007-15.923.01-4.863.016-9.726.014-14.59-.004-1.755-.003-3.51 0-5.266.012-14.127.084-25.836-1.447-36.515-11.511-2.313-2.563-2.313-2.563-4-5l-2.125-2.75c-4.316-7.482-4.159-15.668-4.102-24.104v-3.491c0-3.782.016-7.564.032-11.346l.008-7.899c.006-6.204.023-12.409.043-18.613.025-7.764.035-15.528.046-23.291.02-13.835.06-27.67.098-41.506z" fill="#8d52ae"/><path d="M753 221c7.455 6.657 9.62 14.494 10.186 24.183.08 3.679.096 7.352.089 11.032l.015 4.216c.013 3.787.014 7.573.012 11.36-.001 3.167.003 6.333.008 9.5.011 7.465.012 14.93.006 22.395-.006 7.7.006 15.4.027 23.101.018 6.622.024 13.244.02 19.866-.001 3.95.001 7.902.015 11.852.013 3.708.011 7.416-.002 11.123-.004 2.012.008 4.023.02 6.035l-.022 3.615v3.148C763 385 763 385 761.688 386.836c-2.82 1.946-5.977 1.554-9.28 1.505h-2.336a909.975 909.975 0 01-7.645-.048 2986.567 2986.567 0 01-19.253-.087c-4.746-.03-9.492-.044-14.237-.06A8411.44 8411.44 0 01681 388l1-2c14.69-.79 29.355-1.109 44.062-1.125l2.34-.008c2.274-.006 4.547-.004 6.82 0l3.962.004c6.947.108 13.885.664 20.816 1.129.047-18.177.082-36.354.104-54.53.01-8.441.024-16.882.047-25.323.02-7.361.033-14.723.037-22.084.003-3.894.009-7.788.023-11.682.014-3.673.018-7.347.015-11.021.001-1.973.012-3.946.023-5.919-.018-7.669-.673-14.93-2.249-22.441l-.378-2.272L757 229l-3-1v-3a92.764 92.764 0 00-1-4z" fill="#8d52ae"/><path d="M790 228c2 1 2 1 2.617 2.736.43 2.538.507 4.913.506 7.488l.006 3.223-.009 3.537.003 3.76c.001 3.446-.002 6.891-.007 10.337-.004 3.715-.003 7.43-.002 11.145 0 6.437-.003 12.874-.008 19.311-.008 9.307-.011 18.614-.012 27.921-.002 15.1-.01 30.2-.019 45.3-.009 14.668-.016 29.337-.02 44.006v2.74l-.005 13.605c-.01 37.63-.028 75.26-.05 112.891h-2l-1-308z" fill="#8d52ae"/><path d="M230 232h1l-1 306c-2.531-2.531-2.25-3.378-2.252-6.883l-.015-3.147.013-3.483-.01-3.68c-.006-3.382-.004-6.763.003-10.145.004-3.643-.003-7.286-.008-10.929-.01-7.142-.007-14.284-.002-21.425.005-5.805.006-11.61.003-17.414v-2.5l-.003-5.028c-.005-15.733.001-31.466.012-47.199.009-13.502.007-27.003-.002-40.505a43727.824 43727.824 0 01-.007-52.02l.001-2.492c.002-5.796 0-11.592-.006-17.388-.005-7.066-.004-14.133.007-21.199.005-3.605.007-7.211 0-10.817-.006-3.908.002-7.816.012-11.725l-.013-3.456c.026-5.242.126-9.673 2.267-14.565z" fill="#8d52ae"/><path d="M259 416h54l1 2c-36.791 1.507-36.791 1.507-47.713.492l-3-.278L261 418c.037 15.082.097 30.164.184 45.247.04 7.003.072 14.007.087 21.01.014 6.764.05 13.526.097 20.289.015 2.576.023 5.152.024 7.729.002 3.617.03 7.233.062 10.85l-.015 3.206c.138 9.917 3.126 18.87 10.018 26.224 12.6 11.861 32.292 10.68 48.543 11.445v1c-4.053.1-8.105.172-12.158.22-1.373.02-2.746.047-4.12.082-13.686.34-24.551-1.717-34.722-11.302-2.313-2.563-2.313-2.563-4-5l-2.125-2.75c-4.316-7.482-4.159-15.668-4.102-24.104v-3.491c0-3.782.016-7.564.032-11.346l.008-7.899c.006-6.204.023-12.409.043-18.613.025-7.764.035-15.528.046-23.291.02-13.835.06-27.67.098-41.506z" fill="#8d52ae"/><path d="M687 416h74c2.25 9 2.25 9 2.254 13.004l.017 2.748-.012 2.93.01 3.152c.01 3.416.003 6.832-.003 10.248l.005 7.141c.003 4.977 0 9.954-.01 14.931a5234.28 5234.28 0 00.007 19.16c.007 4.91.005 9.82 0 14.73-.002 2.355 0 4.711.005 7.067.005 3.285-.003 6.569-.014 9.853l.012 2.961-.017 2.706-.002 2.351C763 531 763 531 761 534c-.858-6.657-1.138-13.137-1.114-19.844v-3.166c0-3.425.008-6.85.016-10.275l.005-7.158c.003-6.259.013-12.518.024-18.776.01-6.395.015-12.79.02-19.185.01-12.532.028-25.064.049-37.596l-1.76.214c-4.406.517-8.727.912-13.168.915l-3.246.01-3.42-.006-3.596.003c-2.498 0-4.995-.001-7.493-.006-3.805-.005-7.61 0-11.415.007-2.436 0-4.872-.002-7.308-.004l-3.42.006c-6.141-.018-12.084-.332-18.174-1.139v-2z" fill="#8d52ae"/><path d="M286 594h170v65h-2l-1-62-15.115-.06c-16.44-.067-32.88-.144-49.321-.228-9.973-.05-19.945-.096-29.918-.134-8.689-.033-17.378-.073-26.067-.12-4.604-.026-9.207-.048-13.81-.061-4.33-.013-8.658-.035-12.987-.064-1.592-.01-3.184-.015-4.777-.017a922.056 922.056 0 01-6.5-.038l-3.682-.016C288 596 288 596 286 594z" fill="#8d52ae"/><path d="M562 594h170c-2 2-2 2-4.839 2.246l-3.704-.005-2.059.005c-2.288.003-4.575-.008-6.863-.019h-4.908c-4.45.002-8.9-.01-13.35-.024-4.647-.013-9.294-.014-13.942-.016-8.804-.006-17.608-.023-26.413-.043-10.021-.022-20.043-.033-30.064-.043-20.62-.021-41.239-.058-61.858-.101v61l-2 1v-64z" fill="#8d52ae"/><path d="M486.018 593.88l2.685.006h3.076c1.612.009 1.612.009 3.256.016l2.976.003c3.684.006 7.368.02 11.051.033L534 594v53c-6.753 2.25-6.753 2.25-10.489 2.275l-2.517.029-2.662-.003-2.778.013c-1.928.005-3.857.006-5.786.002-2.956-.004-5.912.02-8.868.045-1.877.003-3.754.003-5.63.002l-2.68.028-2.49-.019-2.185.002c-2.56-.5-3.413-1.251-4.915-3.374-.367-2.29-.367-2.29-.356-5.006l-.01-3.084.038-3.324.006-3.41c.006-2.38.02-4.758.04-7.137.032-3.656.042-7.312.048-10.969l.03-6.922.014-3.336.029-3.064.02-2.712c.19-2.745.41-2.992 3.16-3.156zM486 596c-.667 6.672-1.15 13.03-1.133 19.691l-.003 2.64c0 1.82.001 3.64.006 5.458.005 2.798 0 5.595-.007 8.393 0 1.774.002 3.548.004 5.322l-.006 2.54c-.353 3.785-.353 3.785 1.139 6.956 3.056.101 6.088.14 9.145.133l2.791.003c1.955 0 3.91-.001 5.864-.006 2.99-.005 5.978 0 8.968.007 1.896 0 3.793-.002 5.689-.004l2.712.006 2.537-.01 2.225-.002c2.42-.085 2.42-.085 6.069-1.127v-50l-2 1v-1h-44z" fill="#8d52ae"/><path d="M259 241h1v145l28-1c34.232-.473 34.232-.473 42 6 1.674 1.66 3.34 3.327 5 5 .963.943 1.928 1.884 2.895 2.824l2.918 2.863 1.521 1.471c1.26 1.243 2.468 2.539 3.666 3.842v2l3 1c.688 2.063.688 2.063 1 4-3.263-1.088-3.878-1.75-6-4.313l-1.848-2.16L340 405a468.443 468.443 0 00-5.438-6.25l-2.62-3.016c-18.665-17.35-52.885-7.41-72.942-7.734V241z" fill="#8d52ae"/><path d="M456 660c2 2 2 2 3.75 5.313 2.81 5.034 6.904 8.452 12.25 10.687 2.396.346 2.396.346 4.95.379l2.818.103 2.92.08c1.92.06 3.84.124 5.761.192l2.573.072C493 677 493 677 494 678c3.215 26.595 3.215 26.595-1.348 34.266-3.412 3.14-7.478 4.587-11.827 6.023-4.214 1.642-6.995 5.324-9.825 8.711l-1.563 1.82C463.221 736.56 458.639 745.797 455 755h-1c.491-10.805 7.19-20.035 14-28 .63-.773 1.258-1.547 1.906-2.344 6.11-7.273 12.638-11.428 21.094-15.656l1-30-9.438.313c-7.568.086-13.712.038-19.562-5.313l-1.82-1.645c-3.8-3.913-4.959-6.938-5.18-12.355z" fill="#8d52ae"/><path d="M566 800h1c1.222 16.626-5.851 33.35-15.875 46.438-9.836 11.36-21.557 20.567-36.926 22.414-11.7.542-23.182-.174-33.199-6.852l-2 1v-4c2.82.914 5.61 1.837 8.347 2.977 6.995 2.826 13.076 3.696 20.59 3.585l3.192-.03c11.604-.318 19.264-3.562 28.129-11.177C541 853 541 853 543 853v-2h2l.75-1.688C547 847 547 847 548.832 844.746 559.155 831.671 563.645 816.276 566 800z" fill="#8d52ae"/><path d="M525.155 676.773c.87.01 1.738.02 2.634.032l2.852.02 2.984.05 3.008.027c2.456.024 4.911.057 7.367.098v2c-2.937.195-5.874.381-8.813.562l-2.525.17-2.432.147-2.237.143C526 680 526 680 523 679c-.01 4.149.057 8.287.195 12.433.036 1.407.052 2.814.045 4.222-.013 4.654.232 8.896 1.76 13.345 3.633 3.321 7.55 5.008 12 7 10.543 7.712 17.158 18.521 23 30l1.156 2.145c1.076 2.366.987 4.287.844 6.855-2.443-2.93-4.04-6.034-5.65-9.482-7.85-16.74-19.188-26.795-35.35-35.518-.05-4.378-.086-8.756-.11-13.135-.01-1.49-.024-2.98-.04-4.47-.025-2.14-.036-4.279-.045-6.418l-.032-3.904c.261-3.539.69-4.911 4.382-5.3z" fill="#8d52ae"/><path d="M761 378h1v9c-3.028 1.514-6.159 1.13-9.479 1.114h-2.336c-2.554 0-5.108-.009-7.662-.016l-5.305-.005c-4.659-.003-9.318-.013-13.977-.024-4.752-.01-9.504-.015-14.257-.02-9.328-.01-18.656-.028-27.984-.049l1-2c14.69-.79 29.355-1.109 44.063-1.125l2.34-.008A408.416 408.416 0 01760 386l-.062-3.437C760 379 760 379 761 378z" fill="#8d52ae"/><path d="M460 207h85c-2.778 2.778-5.456 2.456-9.191 2.617l-2.26.114c-9.168.413-18.344.42-27.52.4-3.015-.006-6.029 0-9.043.006-1.92 0-3.842-.002-5.763-.004l-2.724.006c-6.269-.024-6.269-.024-8.499-1.139a83.436 83.436 0 00-4.57-.316l-2.715-.127-2.84-.12-2.863-.13c-2.337-.107-4.675-.209-7.012-.307v-1z" fill="#8d52ae"/><path d="M461 483c2 1 2 1 2.898 3.433l.907 3.22 1.02 3.544 1.05 3.74c4.012 17.667 4.012 17.667 14.941 31.243 7.374 3.953 14.94 5.102 23.184 5.445l2.348.117c1.883.093 3.768.177 5.652.258-2.777 2.777-4.493 2.3-8.375 2.313-11.245-.207-21.336-2.197-29.625-10.313-5.066-6.15-7.051-13.62-9.222-21.146a566.354 566.354 0 00-1.823-6.141C460.74 487.836 460.74 487.836 461 483z" fill="#8d52ae"/><path d="M789 542h1c0 13.079-8.304 24.42-17.23 33.352L770 578l-2.363 2.273C758.907 587.932 743.873 595.72 732 595l-1-2 3.008-.629c19.244-4.26 34.984-13.021 46.015-29.91 3.72-6.513 6.604-13.343 8.977-20.461z" fill="#8d52ae"/><path d="M590 349h2c10.558 31.674 10.558 31.674 11.262 33.814.52 1.538 1.062 3.068 1.622 4.592l.86 2.391.8 2.151c.524 2.36.212 3.782-.544 6.052-3.764-8.869-6.737-17.983-9.75-27.125l-1.535-4.633c-1.242-3.746-2.48-7.494-3.715-11.242-1.771 2.657-2.586 4.464-3.508 7.45l-.8 2.568-.817 2.67-.84 2.705c-.683 2.2-1.36 4.403-2.035 6.607h-2c1.064-6.454 2.722-12.396 5.05-18.508.77-2.018 1.465-4.064 2.138-6.117C589 350 589 350 590 349z" fill="#8d52ae"/><path d="M564 427h1c-.588 7.317-2.662 13.927-4.895 20.898l-1.177 3.728c-.82 2.595-1.646 5.189-2.474 7.781a2696.75 2696.75 0 00-3.137 9.89c-1.004 3.181-2.014 6.36-3.024 9.539l-1.121 3.546c-2.132 6.658-4.465 13.17-7.172 19.618-1.282-4.23-.404-6.735.957-10.957l.663-2.084c.72-2.26 1.456-4.516 2.192-6.772.503-1.564 1.005-3.13 1.506-4.695a2893.98 2893.98 0 013.121-9.675c1.497-4.613 2.976-9.232 4.452-13.852l2.671-8.34.64-1.995c.599-1.864 1.2-3.728 1.802-5.59l1.026-3.182c.903-2.662 1.899-5.26 2.97-7.858z" fill="#8d52ae"/><path d="M480 813h2l1.39 2.887 1.86 3.8.91 1.897c3.729 7.577 7.799 12.15 15.84 15.166 6.666.833 12.794.636 18.336-3.488 4.026-3.46 7.084-6.584 9.664-11.262l3 1c-5.499 7.936-11.218 14.796-21 17-6.772.978-12.159-.513-18-4-6.326-5.297-11.257-12.23-14-20v-3z" fill="#8d52ae"/><path d="M557.207 206.77h3.52c2.445.004 4.89.012 7.335.024 3.755.019 7.51.02 11.264.02l7.131.018 3.415.003 3.147.02 2.776.011C598 207 598 207 600 208l-1 2h-61v-1c6.412-2.309 12.44-2.274 19.207-2.23z" fill="#8d52ae"/><path d="M230 539c1.96 3.537 3.018 7.202 4.188 11.063 2.266 7.07 5.363 12.95 9.812 18.937l1.547 2.137C254.155 581.982 266.294 587.519 279 592v1c-5.31.453-9.066-1.042-13.688-3.438l-2.13-1.099C247.786 580.262 236.973 567.394 231 551c-1.23-4.066-1.07-7.774-1-12z" fill="#8d52ae"/><path d="M278 180c-2.155 2.383-3.125 3.042-6.313 4.125-14.661 5.238-26.446 16.333-33.445 30.094-1.677 3.754-3.09 7.566-4.383 11.469C233 228 233 228 231 231c-.644-13.381 7.525-24.388 16-34 7.308-7.616 19.827-18.016 31-17z" fill="#8d52ae"/><path d="M413 325h3l.5 1.835c2.838 10.376 5.703 20.739 8.934 31l.615 1.96c.995 3.155 2 6.307 3.017 9.456 1.891 5.95 3.456 11.515 3.934 17.749-2.838-2.402-3.671-4.504-4.625-8.063-.954-3.558-.954-3.558-2.375-6.937a152.612 152.612 0 01-.742-4.086c-1.491-7.689-4.006-15.09-6.383-22.539A4131.015 4131.015 0 00414 330l-2 1 1-6z" fill="#8d52ae"/><path d="M386 405h1c-.562 5.87-1.77 11.032-3.695 16.594l-.82 2.397a1024.96 1024.96 0 01-1.73 4.981 679.562 679.562 0 00-2.567 7.563c-6.197 18.057-6.197 18.057-14.239 22.632-2.445 1.045-4.421 1.134-7.074 1.146l-2.633.05L352 460l-2-3 2.414.14c4.84.166 8.59.287 13.086-1.64 5.329-5.329 7.43-12.737 9.7-19.777l.85-2.582c.884-2.691 1.762-5.385 2.638-8.079.887-2.718 1.777-5.436 2.67-8.153a1334.62 1334.62 0 001.65-5.055c1.88-5.742 1.88-5.742 2.992-6.854z" fill="#8d52ae"/><path d="M426.375 260.688c4.56 4.017 7.182 8.419 8.625 14.312.075 2.332.093 4.669 0 7-1.906-2.86-2.505-4.614-3.313-7.875-1.786-6.107-4.42-8.818-9.937-12-4.633-1.39-8.11-1.488-12.75-.125-8.038 5.005-10.362 13.366-13 22h-1c-.36-7.334 1.975-14.328 6.68-20.04 7.28-6.568 15.905-7.668 24.695-3.272z" fill="#8d52ae"/><path d="M746 181c8.1.953 13.092 3.17 19.313 8.313 4.07 3.368 4.07 3.368 8.257 6.59 7.358 6.352 14.89 17.865 16.18 27.597l.25 3.5c-1.833-2.75-3.243-5.52-4.663-8.496C776.504 200.143 764.304 190.428 746 182v-1z" fill="#8d52ae"/><path d="M456 660c2 2 2 2 3.75 5.313 2.81 5.034 6.904 8.452 12.25 10.687 2.396.346 2.396.346 4.95.379l2.818.103 2.92.08c1.92.06 3.84.124 5.761.192l2.573.072C493 677 493 677 494 678c.088 2.376.115 4.722.098 7.098l-.005 2.148c-.005 2.272-.018 4.544-.03 6.817-.006 1.537-.01 3.074-.014 4.61-.011 3.776-.028 7.552-.049 11.327h-1v-31c-6.507.196-6.507.196-13.011.45-7.685.116-13.203-1.998-18.902-7.195-3.76-3.862-4.869-6.91-5.087-12.255z" fill="#8d52ae"/><path d="M297.875 206.875l3.492.055L304 207v1l-6.152.684c-1.86.135-1.86.135-2.848 1.316-1.475.274-2.955.519-4.438.75-9.084 1.778-16.9 5.797-22.562 13.25-3.52 5.728-5.662 11.434-7 18l-2-1c1.16-10.906 6.377-19.674 14.89-26.57 3.49-2.366 7.157-3.997 11.11-5.43l2.844-1.098c3.495-.999 6.404-1.101 10.031-1.027z" fill="#8d52ae"/><path d="M685 419l1 3a76.939 76.939 0 01-4.813 6.375 4452.681 4452.681 0 00-3.078 3.8c-.522.641-1.045 1.281-1.584 1.94-2.247 2.777-4.42 5.609-6.587 8.448l-1.225 1.59a806.944 806.944 0 00-6.385 8.41l-1.34 1.775a1482.004 1482.004 0 00-3.664 4.885c-2.262 2.703-4.42 4.785-7.324 6.777-2.313-.25-2.313-.25-4-1l2.563-1.5c7.96-5.363 13.38-14.216 19.121-21.772 1.75-2.298 3.514-4.584 5.278-6.871A1190.87 1190.87 0 00685 419z" fill="#8d52ae"/><path d="M392 562h43v2h5v1h-56v-1h8v-2z" fill="#8d52ae"/><path d="M507.5 734.5c7.605.234 13.663 5.301 18.75 10.563 5.084 6.076 9.75 13.893 9.75 21.937h-2l-.883-2.563c-2.304-6.376-4.57-11.76-8.98-16.949C523 746 523 746 523 744l-1.688-.813C519 742 519 742 516.75 740.5c-3.084-1.682-5.597-2.192-9.063-2.688l-3.238-.48L502 737c2-2 2-2 5.5-2.5z" fill="#8d52ae"/><path d="M687 416c19.698-.12 39.32.03 59 1v1c-4.55.146-9.098.288-13.647.427-1.54.048-3.08.096-4.62.146-29.998.96-29.998.96-40.733-.573v-2z" fill="#8d52ae"/><path d="M753 221c5.034 4.495 8.715 10.167 9.12 17.038l-.006 2.18v2.486l-.016 2.655-.005 2.74c-.005 2.884-.018 5.768-.03 8.651A7223.55 7223.55 0 01762 277h-1c-.76-7.563-1.033-14.97-.938-22.563.075-7.335-.425-14.255-2.062-21.437l-.379-2.254L757 229l-3-1v-3a92.764 92.764 0 00-1-4z" fill="#8d52ae"/><path d="M259 416h54l1 2c-29.139 1.194-29.139 1.194-42 1v-2h-13v-1z" fill="#8d52ae"/><path d="M452 818c2.832 2.832 3.775 6.327 5.188 10 4.788 11.948 11.459 20.155 20.812 29l-3 1c-11.359-10.536-22.09-23.913-23-40z" fill="#8d52ae"/><path d="M566 800h1c1.185 16.124-5.45 33.73-16 46l-2-1 1.574-2.387c8.64-13.493 12.47-26.979 15.426-42.613z" fill="#8d52ae"/><path d="M679 389l-1.758 1.066c-5.434 3.435-9.367 6.84-13.242 11.934l-2.414 3.125a819.412 819.412 0 00-3.896 5.08c-2.801 3.685-5.705 7.257-8.69 10.795l-1-2c23.536-32.666 23.536-32.666 31-30z" fill="#8d52ae"/><path d="M449 773h1l.076 2.532c.096 3.172.196 6.344.296 9.516.064 2.02.124 4.038.185 6.057.277 8.656.757 17.263 1.443 25.895l-2-1c-2.52-7.876-2.282-16.365-2.206-24.537.019-2.054.02-4.107.02-6.16.045-10.022.045-10.022 1.186-12.303z" fill="#8d52ae"/><path d="M317 386c8.275.662 12.353 4.288 18 10 .963.943 1.928 1.885 2.895 2.824l2.918 2.863 1.521 1.471c1.26 1.243 2.468 2.539 3.666 3.842v2l3 1c.688 2.063.688 2.063 1 4-3.263-1.088-3.878-1.75-6-4.313l-1.848-2.16L340 405c-6.793-7.964-12.382-14.503-23-17v-2z" fill="#8d52ae"/><path d="M401 361h1c-.61 5.476-1.94 10.355-3.723 15.559l-.802 2.391c-.84 2.498-1.689 4.993-2.538 7.488l-1.72 5.107c-1.4 4.154-2.806 8.305-4.217 12.455h-2c1.545-8.14 4.155-15.89 6.796-23.723.773-2.298 1.539-4.598 2.304-6.898l1.466-4.379.695-2.086c1.623-4.798 1.623-4.798 2.739-5.914z" fill="#8d52ae"/><path d="M538 778h1c3.242 13.859.83 29.196-5 42-1.258-3.575-.699-5.804.363-9.39 1.808-6.77 2.394-13.384 2.824-20.36l.249-3.594c.197-2.885.385-5.77.564-8.656z" fill="#8d52ae"/><path d="M760 535c1.244 2.826.961 4.13.063 7.125-4.265 8.933-10.915 15.994-20.063 19.875-2.767.667-5.138.894-8 1 2.089-2.089 3.423-2.677 6.125-3.75 10.207-4.473 16.31-11.112 20.75-21.313L760 535z" fill="#8d52ae"/><path d="M394 285c1.256 3.769.54 5.09-.73 8.813l-1.186 3.511c-.42 1.213-.84 2.426-1.271 3.676l-1.213 3.582A893.768 893.768 0 01382 326h-1c.556-5.433 1.531-10.27 3.215-15.492l.654-2.037c.453-1.404.91-2.807 1.369-4.21.704-2.148 1.393-4.302 2.08-6.456l1.334-4.11 1.219-3.75C392 287 392 287 394 285z" fill="#8d52ae"/><path d="M478 772h1l1 40c-3.12-4.68-3.128-8.26-3.133-13.848l-.003-1.979c0-1.376.001-2.751.006-4.127.005-2.105 0-4.21-.007-6.314 0-1.339.002-2.678.004-4.017l.004-3.684C477 775 477 775 478 772z" fill="#8d52ae"/><path d="M353 563v1a359.09 359.09 0 01-50 0v-1a359.09 359.09 0 0150 0z" fill="#8d52ae"/><path d="M739.875 177.438l2.93.87L745 179v2l-1.853-.208a205.935 205.935 0 00-17.655-1.108l-2.58-.063c-2.679-.065-5.358-.124-8.037-.183l-5.5-.131c-4.458-.107-8.917-.208-13.375-.307v-1l2.842-.076c3.5-.095 7-.195 10.5-.296 1.511-.043 3.022-.085 4.533-.125 2.18-.059 4.36-.122 6.54-.187l3.966-.11c3.578-.137 3.578-.137 6.906-.76 3.282-.54 5.424.027 8.588.992z" fill="#8d52ae"/><path d="M607 399c3.468 3.788 4.555 8.255 6 13.063l.79 2.563c1.862 6.09 3.63 12.204 5.21 18.374-3.66-2.44-3.898-3.817-5.262-7.926l-1.2-3.603-1.226-3.784-1.26-3.748c-3.32-10.093-3.32-10.093-3.052-14.939z" fill="#8d52ae"/><path d="M578 384h1c-.57 7.378-2.741 14-5.063 21l-1.142 3.504c-.925 2.834-1.857 5.666-2.795 8.496h-2c1.255-7.24 3.174-14.057 5.563-21l.958-2.848c2.309-6.811 2.309-6.811 3.479-9.152z" fill="#8d52ae"/><path d="M544 725c8.243 3.556 12.1 13.434 16 21l1.164 2.156c1.07 2.36.978 4.284.836 6.844-2.979-3.576-4.773-7.516-6.75-11.688-2.804-5.792-5.808-10.877-10-15.808C544 726 544 726 544 725z" fill="#8d52ae"/><path d="M476 424c2.698 2.328 3.634 4.27 4.605 7.676.262.91.523 1.821.791 2.76.262.949.523 1.898.791 2.877l.827 2.841c1.326 4.717 2.36 8.896 1.986 13.846-2-1-2-1-2.87-3.453l-.857-3.227-.937-3.504-.961-3.691-.984-3.668C476 427.427 476 427.427 476 424z" fill="#8d52ae"/><path d="M586 284c6.202-.572 11.047-.444 16.238 3.242 3.904 3.896 6.64 9.033 6.887 14.57L609 304c-2.266-2.266-2.767-3.875-3.813-6.875-1.739-4.358-2.836-6.95-7.187-9.125-3.977-.894-7.954-1.51-12-2v-2z" fill="#8d52ae"/><path d="M522 457c1.363 3.724.61 6.112-.582 9.824l-1.076 3.365-1.155 3.498-1.119 3.534c-2.074 6.393-2.074 6.393-3.068 8.779l-2 1c.568-6.701 2.311-12.595 4.5-18.938l.973-2.9c2.38-7.014 2.38-7.014 3.527-8.162z" fill="#8d52ae"/><path d="M315 419c3.706 2.78 6.56 5.687 9.438 9.313 3.447 4.3 6.952 8.522 10.562 12.687l-1 2c-4.928-4.793-9.532-9.778-14-15l-1.55-1.734C315 422.34 315 422.34 315 419z" fill="#8d52ae"/><path d="M773 198h3a66.993 66.993 0 014.438 6l1.21 1.805c4.57 6.903 7.752 12.793 8.352 21.195-1.834-2.75-3.243-5.522-4.666-8.498-3.144-6.546-6.349-12.428-11.084-17.998C773 199 773 199 773 198z" fill="#8d52ae"/><path d="M316.5 206.938l3.36.013c2.713.012 5.426.028 8.14.049v2c-3.473 1.158-5.98 1.023-9.637.879l-3.935-.147-4.115-.17-4.15-.158c-3.388-.13-6.776-.265-10.163-.404v-1c6.86-1.057 13.568-1.116 20.5-1.063z" fill="#8d52ae"/><path d="M499 737l2 1-1.906 1.477c-7.53 6.237-11.702 12.898-16.094 21.523-1-3-1-3-.25-5.2 3.709-7.382 8.307-15.396 16.25-18.8z" fill="#8d52ae"/><path d="M530 822l3 1c-4.44 6.408-9.904 14.25-18 16-2.313-.875-2.313-.875-4-2l2.938-.5c6.257-1.771 11.395-6.893 14.828-12.262L530 822z" fill="#8d52ae"/><path d="M466 729c1 3 1 3-.766 6.547a348.067 348.067 0 01-2.484 4.203c-2.949 4.986-5.582 9.872-7.75 15.25h-1c.443-9.756 6.168-18.453 12-26z" fill="#8d52ae"/><path d="M525.041 676.886l2.65.016 2.862.01 3.01.025 3.021.014c2.472.012 4.944.028 7.416.049v2c-2.937.195-5.874.381-8.813.562l-2.525.17-2.432.147-2.237.143C526 680 526 680 523 679v9h-1a757.916 757.916 0 01-.063-4.938l-.035-2.777c.125-2.928.218-3.236 3.14-3.399z" fill="#8d52ae"/><path d="M435 283c2.376 2.122 3.49 3.752 4.387 6.8l.654 2.214.646 2.298.682 2.264c1.229 4.255 1.894 7.95 1.631 12.424-2.219-2.219-2.618-3.47-3.508-6.43l-.8-2.66-.817-2.785-.84-2.762C435.841 290.345 435 287.238 435 283z" fill="#8d52ae"/><path d="M461 372h2c1.014 3.204 2.009 6.414 3 9.625l.867 2.738c1.432 4.67 2.527 8.691 2.133 13.637l-2-1a148.279 148.279 0 01-2.563-8.625l-.67-2.41c-1.262-4.646-2.197-9.185-2.767-13.965z" fill="#8d52ae"/><path d="M278 180c-2.564 2.837-4.923 3.726-8.527 4.973-5.102 2.12-9.762 5.161-14.473 8.027v-3c6.248-4.971 14.699-10.755 23-10z" fill="#8d52ae"/><path d="M619 435c3.342 3.342 4.234 8.192 5.701 12.615 1.405 4.137 2.961 7.666 5.299 11.385v2c-3-1-3-1-4.281-3.188-7.297-16.838-7.297-16.838-6.719-22.812z" fill="#8d52ae"/><path d="M625 357h2c1.012 3.059 2.007 6.122 3 9.188l.867 2.619.82 2.548.762 2.333c.598 2.51.646 4.741.551 7.312-2-1-2-1-2.778-2.794l-.73-2.32-.8-2.532-.817-2.666-.84-2.631C625.808 364.119 625 361.179 625 357z" fill="#8d52ae"/><path d="M469.438 207.438l3.083.158c2.494.128 4.986.263 7.479.404l1 2h-31l1-2c6.135-1.405 12.195-.916 18.438-.563z" fill="#8d52ae"/><path d="M557.438 207.375l3.373.172c2.73.14 5.46.292 8.189.453l-1 2h-30v-1c6.538-2.457 12.54-2.034 19.438-1.625z" fill="#8d52ae"/><path d="M540 503h1c-.588 7.935-2.64 15.883-8 22h-2l.879-1.668c1.204-2.505 2.135-5.024 3.058-7.644A182.55 182.55 0 01540 503z" fill="#8d52ae"/><path d="M495 489h2c.672 1.936 1.338 3.874 2 5.813l1.125 3.269C501 501 501 501 501 504l2 1v4l2 1h-3c-4.059-6.298-7-13.401-7-21z" fill="#8d52ae"/><path d="M687 416h25v1h-8v2l-17-1v-2z" fill="#8d52ae"/><path d="M753 221c5.173 4.619 8.561 9.983 9 17-.264 2.342-.582 4.68-1 7h-1l-.402-2.484-.535-3.266-.528-3.234L758 233l-.379-2.328L757 229l-3-1v-3a92.764 92.764 0 00-1-4z" fill="#8d52ae"/><path d="M435 395c2.916 2.916 3.561 6.511 4.688 10.375l.72 2.328.666 2.258.612 2.056c.36 2.274.009 3.807-.686 5.983-3.371-7.224-6.306-14.935-6-23z" fill="#8d52ae"/><path d="M447 324h2c.844 2.706 1.675 5.414 2.5 8.125l.723 2.305c1.303 4.32 2.069 8.003 1.777 12.57-2.16-2.16-2.5-3.156-3.29-6.027l-.663-2.4-.672-2.51-.695-2.499C447 327.411 447 327.411 447 324z" fill="#8d52ae"/><path d="M556 349h2c-.644 4.385-1.644 8.512-2.938 12.75l-1.027 3.422C553 368 553 368 551 370c.576-7.35 2.71-14.014 5-21z" fill="#8d52ae"/><path d="M507.813 865.938l2.1.013c1.695.012 3.391.03 5.087.049-2.696 2.76-3.947 2.999-7.89 3.074a195.614 195.614 0 01-4.36-.386l-2.258-.186A421.895 421.895 0 01495 868v-1c4.283-1.056 8.43-1.117 12.813-1.063z" fill="#8d52ae"/><path d="M538 778h1c1.016 4.22 1.166 8.229 1.188 12.563l.042 3.94c-.21 3.184-.533 4.861-2.23 7.497-.763-8.146-1.215-15.886 0-24z" fill="#8d52ae"/><path d="M639 402c3.228 2.608 4.02 5.467 5.188 9.375l1.042 3.398c.692 2.902.93 5.266.77 8.227-2.822-2.822-3.496-6.207-4.625-9.938l-.695-2.208c-.939-3.047-1.68-5.648-1.68-8.854z" fill="#8d52ae"/><path d="M408 340c1.504 3.914.466 6.72-.75 10.625l-1.047 3.477C405 357 405 357 402 359c1.3-6.715 3.3-12.72 6-19z" fill="#8d52ae"/><path d="M527 439h2c-.538 6.182-2.546 11.327-5 17h-1c.55-6.048 1.904-11.306 4-17z" fill="#8d52ae"/><path d="M761 514h1c1.203 5.565 1.525 11.33 1 17l-2 3c-1.016-6.886-.839-13.098 0-20z" fill="#8d52ae"/><path d="M487 461l2 1v2l2 1c.414 2.723.414 2.723.625 6.063l.227 3.347L492 477c-2.132-2.617-3.435-4.706-4.188-8l-.48-2c-.332-2-.332-2-.332-6z" fill="#8d52ae"/><path d="M336 443c4.953 3.773 8.437 7.908 12 13-4.005-.523-5.648-2.397-8.25-5.375l-2.14-2.398C336 446 336 446 336 443z" fill="#8d52ae"/><path d="M607 399c2.638 3.104 3.704 5.815 4.688 9.75.25.985.502 1.97.761 2.984L613 414l-2 2c-.676-1.892-1.34-3.79-2-5.688l-1.125-3.199c-.814-2.897-1.052-5.13-.875-8.113z" fill="#8d52ae"/><path d="M539.5 561.813l2.281-.043c2.468.256 4.083 1.002 6.219 2.23-3.422 1.14-6.087 1.098-9.688 1.063l-3.574-.028L532 565l-1-2c2.887-.82 5.5-1.162 8.5-1.188z" fill="#8d52ae"/><path d="M471 407h2c3.444 10.374 3.444 10.374 3 16-2.676-4.014-4.199-6.918-4.625-11.75l-.227-2.422L471 407z" fill="#8d52ae"/><path d="M230 539c1.575 2.952 2.668 5.858 3.625 9.063.26.857.52 1.714.79 2.597C235 553 235 553 235 556h-2c-2.293-5.897-3.345-10.666-3-17z" fill="#8d52ae"/><path d="M511 488h2c-.467 5.414-1.243 9.205-4 14h-1c.514-4.97 1.234-9.29 3-14z" fill="#8d52ae"/><path d="M631 461l1.793.84c5.897 2.718 5.897 2.718 12.207 4.16v2c-9.983-.63-9.983-.63-14-4v-3z" fill="#8d52ae"/><path d="M528 526h2c-1.75 4.27-3.909 5.362-7.957 7.25-2.443.897-4.463 1.073-7.043.75 2.225-2.225 4.236-3.2 7.063-4.563 3.189-1.396 3.189-1.396 5.937-3.437z" fill="#8d52ae"/><path d="M480 438c3.466 2.678 4.083 5.837 5 10 .125 3.438.125 3.438 0 6l-2-1c-.852-2.617-.852-2.617-1.625-5.875-.26-1.07-.52-2.14-.79-3.242C480 441 480 441 480 438z" fill="#8d52ae"/><path d="M583.188 286.313L585 287l-2.75 1.5c-3.973 2.599-5.484 6.22-7.25 10.5-.61-1.809-.61-1.809-1-4 5.283-9.245 5.283-9.245 9.188-8.688z" fill="#8d52ae"/><path d="M747 591c-4.653 3.102-9.415 4.338-15 4l-1-2c5.38-1.19 10.453-2.292 16-2z" fill="#8d52ae"/><path d="M375 342c1.15 3.373.852 5.349-.313 8.688l-.8 2.386C373 355 373 355 371 356c.539-5.277 1.773-9.256 4-14z" fill="#8d52ae"/><path d="M564 763h2c1.001 3.31 1.104 6.3 1.063 9.75l-.028 2.984L567 778c-1.913-3.266-2.357-5.994-2.625-9.75l-.227-2.984L564 763z" fill="#8d52ae"/><path d="M561 659h1c-.377 6.165-2.159 9.174-6 14l-3-1 2.313-2.563c2.736-3.257 4.181-6.474 5.687-10.437z" fill="#8d52ae"/><path d="M454 348h2c1.757 4.504 2.193 8.176 2 13-3.094-3.094-3.937-6.552-4.125-10.875L454 348z" fill="#8d52ae"/><path d="M536 768c2.884 2.884 2.846 6.092 3 10-.188 2.39-.557 4.637-1 7h-1l-1-17z" fill="#8d52ae"/><path d="M418.25 258.438l2.703.308L423 259c-3.134 2.09-3.975 2.274-7.563 2.25l-2.378.016C411 261 411 261 409 259c3.27-1.031 5.86-.964 9.25-.563z" fill="#8d52ae"/><path d="M655 410l2 1a991.014 991.014 0 01-3.375 4.438l-1.898 2.496C650 420 650 420 648 421c1.486-4.593 3.85-7.436 7-11z" fill="#8d52ae"/><path d="M358 392h2a671.24 671.24 0 01-1.375 5.375l-.773 3.023C357 403 357 403 355 405c.48-4.714.968-8.666 3-13z" fill="#8d52ae"/><path d="M531 756h2c3 6.5 3 6.5 3 11h-2l-3-11z" fill="#8d52ae"/><path d="M505.945 734.805L512 735v3l-10-1c2-2 2-2 3.945-2.195z" fill="#8d52ae"/><path d="M317 386c4.557.438 7.577.85 11 4-3.41 1.136-4.003.867-7.188-.438l-2.167-.87L317 388v-2z" fill="#8d52ae"/><path d="M625 357h2l2 9-2 1c-1.316-3.62-2-6.096-2-10z" fill="#8d52ae"/><path d="M413 325h3c.625 2.313.625 2.313 1 5l-2 3-1-3-2 1 1-6z" fill="#8d52ae"/><path d="M464 208c-3.212 1.906-5.539 2.223-9.25 2.125l-2.703-.055L450 210l1-2c4.63-.998 8.384-1.013 13 0z" fill="#8d52ae"/><path d="M234 556h2c4.093 6.45 4.093 6.45 3.621 9.234L239 567a804.91 804.91 0 01-2.5-4.375l-1.406-2.46C234 558 234 558 234 556z" fill="#8d52ae"/><path d="M635 389c2.042 1.692 2.918 2.637 3.512 5.262l.176 2.425.199 2.45L639 401c-1.903-2.855-2.462-4.42-3.125-7.688l-.508-2.449L635 389z" fill="#8d52ae"/><path d="M452 756h2c-.114 1.48-.241 2.96-.375 4.438l-.21 2.496L453 765l-2 1c-.125-6.625-.125-6.625 1-10z" fill="#8d52ae"/><path d="M528.125 646.438l2.758.308L533 647v1l-11 1-1-2c2.623-1.312 4.23-.896 7.125-.563z" fill="#8d52ae"/><path d="M457 745c1.392 4.176-.177 6.135-2 10h-1c.75-6.625.75-6.625 3-10z" fill="#8d52ae"/><path d="M354 406c.965 3.003 1.224 5.042 0 8l-3 1c.75-6.75.75-6.75 3-9z" fill="#8d52ae"/><path d="M543 389h3l-3 9h-1l1-9z" fill="#8d52ae"/><path d="M590 349h2v6l-4 1c-.125-2.375-.125-2.375 0-5l2-2z" fill="#8d52ae"/><path d="M394 285c1.255 3.766.37 5.372-1 9l-2-1c.75-5.75.75-5.75 3-8z" fill="#8d52ae"/><path d="M752 549c.688 1.813.688 1.813 1 4-1.188 1.813-1.188 1.813-3 3-2.188-.313-2.188-.313-4-1l2.438-1.875c2.6-1.867 2.6-1.867 3.562-4.125z" fill="#8d52ae"/><path d="M569 309h3a128.606 128.606 0 01-2 7l-2 1 1-8z" fill="#8d52ae"/><path d="M753 221c2.799 2.528 4.458 4.204 5 8l-4-1v-3a92.764 92.764 0 00-1-4z" fill="#8d52ae"/><path d="M560 438l2 1-2 9c-2-4-2-4-1.125-7.25L560 438z" fill="#8d52ae"/><path d="M442 419c2.097 2.36 2.97 3.546 3.188 6.75L445 428h-2l-1-9z" fill="#8d52ae"/><path d="M430 378l2 1c.594 2.649.742 5.292 1 8-1.5-1.125-1.5-1.125-3-3-.188-3.188-.188-3.188 0-6z" fill="#8d52ae"/><path d="M435 283c1.5 1.125 1.5 1.125 3 3 .188 3.188.188 3.188 0 6l-2-1c-.594-2.649-.742-5.292-1-8z" fill="#8d52ae"/><path d="M452 620l1 4z" fill="#8d52ae"/><path d="M591 282l4 1z" fill="#8d52ae"/><path d="M515 741h2l-1 2-1-2z" fill="#8d52ae"/><path d="M610 420h2l-1 2-1-2z" fill="#8d52ae"/><path d="M728 211l3 1z" fill="#8d52ae"/><path d="M497 869l2 1z" fill="#8d52ae"/><path d="M512 835l2 1z" fill="#8d52ae"/><path d="M524 750l2 1z" fill="#8d52ae"/><path d="M513 740l2 1z" fill="#8d52ae"/><path d="M529 644l2 1z" fill="#8d52ae"/><path d="M754 589l2 1z" fill="#8d52ae"/><path d="M251 582l2 1z" fill="#8d52ae"/><path d="M677 385l2 1z" fill="#8d52ae"/><path d="M261 184l2 1z" fill="#8d52ae"/></svg>